<?xml version="1.0" standalone="no"?>
<!DOCTYPE svg PUBLIC "-//W3C//DTD SVG 1.1//EN" "http://www.w3.org/Graphics/SVG/1.1/DTD/svg11.dtd" >
<svg xmlns="http://www.w3.org/2000/svg" xmlns:xlink="http://www.w3.org/1999/xlink" version="1.1">
<metadata>
Created by FontForge 20170731 at Wed Oct  6 20:29:01 2010
 By Aleksey,,,
Copyright (c) Mark Simonson, 2005. All rights reserved.
</metadata>
<defs>
<font id="ProximaNovaA-BlackIt" horiz-adv-x="510" >
  <font-face 
    font-family="Proxima Nova Alt Bl"
    font-weight="900"
    font-style="italic"
    font-stretch="normal"
    units-per-em="1000"
    panose-1="2 0 5 6 3 0 0 2 0 4"
    ascent="800"
    descent="-200"
    x-height="483"
    cap-height="667"
    bbox="-226 -200 1125 916"
    underline-thickness="20"
    underline-position="-173"
    unicode-range="U+000D-FB02"
  />
<missing-glyph horiz-adv-x="459" 
d="M425 -90h-351v842h351v-842zM393 -60v782h-288v-782h288z" />
    <glyph glyph-name="fi" unicode="fi" horiz-adv-x="651" 
d="M213 0h-180l72 327h-80l35 156h79l6 25q17 74 71.5 121.5t133.5 47.5q76 0 123 -28l-59 -117q-14 12 -39 12q-42 0 -50 -36l-6 -25h99l-35 -156h-98zM582 518q-39 0 -65 25t-26 61q0 53 36 84.5t78 31.5q39 0 65 -25t26 -61q0 -53 -36 -84.5t-78 -31.5zM547 0h-180
l107 483h180z" />
    <glyph glyph-name="fl" unicode="fl" horiz-adv-x="699" 
d="M213 0h-180l72 327h-80l35 156h79l6 25q17 74 71.5 121.5t133.5 47.5q76 0 123 -28l-59 -117q-14 12 -39 12q-42 0 -50 -36l-6 -25h99l-35 -156h-98zM574 -12q-85 0 -131.5 32.5t-46.5 90.5q0 20 4 37l114 519h180l-103 -467q-2 -8 -2 -18q0 -15 13 -25t33 -10t25 5v-144
q-26 -20 -86 -20z" />
    <glyph glyph-name=".notdef" horiz-adv-x="459" 
d="M425 -90h-351v842h351v-842zM393 -60v782h-288v-782h288z" />
    <glyph glyph-name=".null" horiz-adv-x="0" 
 />
    <glyph glyph-name="nonmarkingreturn" horiz-adv-x="333" 
 />
    <glyph glyph-name="NUL" horiz-adv-x="0" 
 />
    <glyph glyph-name="NUL" horiz-adv-x="0" 
 />
    <glyph glyph-name="CR" unicode="&#xd;" horiz-adv-x="0" 
 />
    <glyph glyph-name="space" unicode=" " horiz-adv-x="255" 
 />
    <glyph glyph-name="exclam" unicode="!" horiz-adv-x="280" 
d="M222 248h-162l66 419h214zM98 -13q-40 0 -68.5 29t-28.5 70q0 47 35 81.5t82 34.5q40 0 68.5 -29t28.5 -70q0 -47 -35 -81.5t-82 -34.5z" />
    <glyph glyph-name="quotedbl" unicode="&#x22;" horiz-adv-x="469" 
d="M184 339h-74q-3 208 -3 232q0 45 31 75.5t75 30.5q33 0 57 -24t24 -59q0 -16 -9 -37zM402 339h-74q-3 208 -3 232q0 45 31 75.5t75 30.5q33 0 57 -24t24 -59q0 -16 -9 -37z" />
    <glyph glyph-name="numbersign" unicode="#" horiz-adv-x="646" 
d="M323 0h-127l88 158h-79l-87 -158h-127l88 158h-86l59 109h88l72 132h-87l58 108h90l88 160h127l-88 -160h78l88 160h127l-89 -160h88l-57 -108h-91l-73 -132h91l-58 -109h-94zM344 267l73 132h-78l-72 -132h77z" />
    <glyph glyph-name="dollar" unicode="$" horiz-adv-x="635" 
d="M185 -100l22 101q-138 31 -210 117l120 144q35 -45 99 -73.5t131 -28.5q26 0 39.5 9t13.5 20q0 15 -33 28t-80 28.5t-93.5 37.5t-79.5 63.5t-33 97.5q0 92 73 161t204 72l20 91h128l-23 -106q106 -28 175 -96l-121 -140q-39 39 -95.5 60t-107.5 21q-19 0 -30 -7.5
t-11 -19.5q0 -14 33 -27t80 -28.5t94 -37.5t80 -63t33 -95q0 -105 -77 -172.5t-204 -68.5l-19 -88h-128z" />
    <glyph glyph-name="percent" unicode="%" horiz-adv-x="784" 
d="M174 0h-97l573 667h98zM555 -12q-70 0 -120.5 38.5t-50.5 103.5q0 85 56 139.5t136 54.5q71 0 121 -38.5t50 -103.5q0 -85 -56 -139.5t-136 -54.5zM559 94q29 0 47.5 20.5t18.5 56.5q0 20 -14.5 33.5t-38.5 13.5q-29 0 -47.5 -20.5t-18.5 -56.5q0 -20 14.5 -33.5
t38.5 -13.5zM247 341q-70 0 -120.5 38.5t-50.5 103.5q0 85 56 139.5t136 54.5q71 0 121 -38.5t50 -103.5q0 -85 -56 -139.5t-136 -54.5zM251 447q29 0 47.5 20.5t18.5 56.5q0 20 -14.5 33.5t-38.5 13.5q-29 0 -47.5 -20.5t-18.5 -56.5q0 -20 14.5 -33.5t38.5 -13.5z" />
    <glyph glyph-name="ampersand" unicode="&#x26;" horiz-adv-x="652" 
d="M595 0h-207q-3 3 -8.5 11t-7.5 11q-73 -34 -147 -34q-105 0 -168 44.5t-63 140.5q0 88 50.5 138t137.5 80q-13 52 -13 93q0 84 63 138.5t159 54.5q82 0 141 -39.5t59 -111.5q0 -42 -16 -73.5t-48 -52.5t-61.5 -33t-74.5 -26q11 -25 22 -43q1 -2 31 -59q44 47 73 99
l124 -80q-61 -81 -126 -139q40 -63 80 -119zM257 126q20 0 40 7q-28 45 -37 64q-18 34 -36 74q-35 -30 -35 -77q0 -33 19 -50.5t49 -17.5zM347 485q0 -23 6 -45q82 27 82 69q0 43 -37 43q-22 0 -36.5 -17.5t-14.5 -49.5z" />
    <glyph glyph-name="quotesingle" unicode="'" horiz-adv-x="252" 
d="M184 339h-74q-3 208 -3 232q0 45 31 75.5t75 30.5q33 0 57 -24t24 -59q0 -16 -9 -37z" />
    <glyph glyph-name="parenleft" unicode="(" horiz-adv-x="346" 
d="M250 -123l-132 -76q-47 56 -71.5 143t-24.5 179q0 157 79.5 311t209.5 251l95 -97q-92 -100 -144 -234t-52 -273q0 -104 40 -204z" />
    <glyph glyph-name="parenright" unicode=")" horiz-adv-x="347" 
d="M95 609l132 76q47 -56 71.5 -143t24.5 -179q0 -157 -79.5 -311t-209.5 -251l-95 97q92 100 144 234t52 273q0 104 -40 204z" />
    <glyph glyph-name="asterisk" unicode="*" horiz-adv-x="363" 
d="M244 343h-83l29 110l-101 -45l-23 73l102 37l-82 57l56 64l75 -64l19 102h82l-30 -110l101 46l24 -74l-101 -37l81 -57l-57 -64l-75 64z" />
    <glyph glyph-name="plus" unicode="+" 
d="M490 285h-168l-43 -193h-116l43 193h-168l23 105h168l41 185h116l-41 -185h168z" />
    <glyph glyph-name="comma" unicode="," horiz-adv-x="281" 
d="M220 97q0 -68 -50 -134.5t-128 -103.5l-60 62q84 34 112 84q-3 -1 -13 -1q-35 0 -58 22t-23 63q0 46 36.5 79.5t81.5 33.5q42 0 72 -28t30 -77z" />
    <glyph glyph-name="hyphen" unicode="-" horiz-adv-x="300" 
d="M253 167h-240l33 150h240z" />
    <glyph glyph-name="period" unicode="." horiz-adv-x="283" 
d="M98 -13q-40 0 -68.5 29t-28.5 70q0 47 35 81.5t82 34.5q40 0 68.5 -29t28.5 -70q0 -47 -35 -81.5t-82 -34.5z" />
    <glyph glyph-name="slash" unicode="/" horiz-adv-x="362" 
d="M69 -20h-130l393 707h131z" />
    <glyph glyph-name="zero" unicode="0" horiz-adv-x="628" 
d="M290 -12q-116 0 -189 72t-73 206q0 174 100 292.5t249 118.5q117 0 189 -71.5t72 -205.5q0 -174 -99.5 -293t-248.5 -119zM309 166q58 0 92 77.5t34 165.5q0 90 -78 90q-58 0 -92.5 -77t-34.5 -165q0 -91 79 -91z" />
    <glyph glyph-name="one" unicode="1" horiz-adv-x="483" 
d="M375 0h-202l90 410l-137 -112l-88 119l310 250h174z" />
    <glyph glyph-name="two" unicode="2" horiz-adv-x="613" 
d="M532 0h-545l39 183q248 129 321.5 176t73.5 90q0 24 -27 38t-69 14q-85 0 -162 -55l-80 146q50 40 119 62.5t139 22.5q122 0 206 -57.5t84 -155.5q0 -84 -65.5 -152.5t-211.5 -135.5h217z" />
    <glyph glyph-name="three" unicode="3" horiz-adv-x="617" 
d="M306 -12q-104 0 -193.5 35.5t-134.5 103.5l129 125q35 -42 91 -64t106 -22q78 0 78 45q0 10 -4.5 17t-27.5 13t-64 6q-77 0 -97 -2l40 179q12 -1 96 -1q53 0 76.5 7t23.5 29q0 41 -110 41q-89 0 -156 -43l-67 136q97 84 244 84q139 0 218.5 -48t79.5 -132q0 -56 -55 -102
t-125 -57q127 -32 127 -149q0 -89 -81 -145t-194 -56z" />
    <glyph glyph-name="four" unicode="4" horiz-adv-x="636" 
d="M487 0h-202l23 107h-321l39 172l317 388h291l-85 -384h77l-39 -176h-77zM347 283l47 210l-173 -210h126z" />
    <glyph glyph-name="five" unicode="5" horiz-adv-x="626" 
d="M313 -12q-207 0 -311 124l139 129q66 -75 173 -75q43 0 64 16.5t21 40.5q0 25 -27 39t-74 14q-37 0 -59.5 -7t-46.5 -26l-129 47l82 377h510l-39 -176h-308l-20 -94q50 41 126 41q86 0 141 -51t55 -139q0 -110 -82.5 -185t-214.5 -75z" />
    <glyph glyph-name="six" unicode="6" horiz-adv-x="625" 
d="M319 -12q-137 0 -216 72t-79 199q0 185 106 301.5t282 116.5q143 0 245 -81l-119 -145q-52 48 -139 48q-48 0 -89 -21.5t-58 -55.5q-7 -13 -11 -32q55 55 154 55q93 0 156.5 -53t63.5 -139q0 -110 -88 -187.5t-208 -77.5zM318 166q37 0 61.5 17t24.5 45q0 25 -32 41
t-76 16q-43 0 -74 -18q-1 -6 -1 -21q0 -37 29.5 -58.5t67.5 -21.5z" />
    <glyph glyph-name="seven" unicode="7" horiz-adv-x="575" 
d="M289 0h-231l317 491h-303l39 176h545l-31 -140z" />
    <glyph glyph-name="eight" unicode="8" horiz-adv-x="630" 
d="M299 -12q-58 0 -110 10.5t-95.5 32t-69 58.5t-25.5 86q0 59 42.5 110.5t125.5 77.5q-39 20 -62.5 54t-23.5 74q0 63 44.5 107t107.5 61.5t136 17.5q74 0 137.5 -17t109 -59t45.5 -102q0 -61 -42.5 -108t-114.5 -65q97 -57 97 -145q0 -91 -89.5 -142t-212.5 -51zM354 421
q40 1 65.5 13.5t25.5 29.5q0 22 -24.5 35.5t-62.5 13.5q-30 0 -52 -12t-22 -30q0 -16 21 -29.5t49 -20.5zM306 152q34 0 62 13.5t28 31.5q0 38 -80 58q-44 -2 -74 -14.5t-30 -34.5q0 -54 94 -54z" />
    <glyph glyph-name="nine" unicode="9" horiz-adv-x="625" 
d="M344 678q137 0 216 -72t79 -199q0 -185 -106 -301.5t-282 -116.5q-143 0 -245 81l119 145q52 -48 139 -48q48 0 89 21.5t58 55.5q7 13 11 32q-55 -55 -154 -55q-93 0 -156.5 53t-63.5 139q0 110 88 187.5t208 77.5zM345 500q-37 0 -61.5 -17t-24.5 -45q0 -25 32 -41
t76 -16q43 0 74 18q1 6 1 21q0 37 -29.5 58.5t-67.5 21.5z" />
    <glyph glyph-name="colon" unicode=":" horiz-adv-x="266" 
d="M98 -13q-40 0 -68.5 29t-28.5 70q0 47 35 81.5t82 34.5q40 0 68.5 -29t28.5 -70q0 -47 -35 -81.5t-82 -34.5zM161 276q-40 0 -68.5 29t-28.5 70q0 47 35 81.5t82 34.5q40 0 68.5 -29t28.5 -70q0 -47 -35 -81.5t-82 -34.5z" />
    <glyph glyph-name="semicolon" unicode=";" horiz-adv-x="281" 
d="M220 97q0 -68 -50 -134.5t-128 -103.5l-60 62q84 34 112 84q-3 -1 -13 -1q-35 0 -58 22t-23 63q0 46 36.5 79.5t81.5 33.5q42 0 72 -28t30 -77zM161 276q-40 0 -68.5 29t-28.5 70q0 47 35 81.5t82 34.5q40 0 68.5 -29t28.5 -70q0 -47 -35 -81.5t-82 -34.5z" />
    <glyph glyph-name="less" unicode="&#x3c;" 
d="M446 90l-412 180l29 130l492 180l-29 -130l-360 -121l307 -119z" />
    <glyph glyph-name="equal" unicode="=" 
d="M509 373h-452l23 105h452zM469 190h-452l23 105h452z" />
    <glyph glyph-name="greater" unicode="&#x3e;" 
d="M486 270l-492 -180l29 130l361 119l-308 121l27 120l412 -180z" />
    <glyph glyph-name="question" unicode="?" horiz-adv-x="450" 
d="M314 260l-166 -36q-10 30 -10 69q0 41 15.5 72.5t37.5 48t44.5 28t38 21t15.5 18.5q0 20 -42 20q-49 0 -89 -31l-83 139q90 68 205 68q92 0 157 -39.5t65 -109.5q0 -49 -20 -84t-48 -54t-56.5 -34.5t-48.5 -34.5t-20 -44q0 -9 5 -17zM185 -13q-40 0 -68.5 29t-28.5 70
q0 47 35 81.5t82 34.5q40 0 68.5 -29t28.5 -70q0 -47 -35 -81.5t-82 -34.5z" />
    <glyph glyph-name="at" unicode="@" horiz-adv-x="783" 
d="M372 -70q-136 0 -226.5 90.5t-90.5 223.5q0 157 120 275.5t277 118.5q141 0 228 -86t87 -209q0 -64 -22 -115.5t-56 -81.5t-71.5 -45.5t-73.5 -15.5q-84 0 -103 66l-2 7q-51 -73 -129 -73q-73 0 -115 49t-42 125q0 95 65.5 166.5t151.5 71.5q84 0 122 -56l9 44h158
l-46 -217q-3 -15 -3 -27q0 -38 28 -38q32 0 55.5 37.5t23.5 102.5q0 115 -72 183t-197 68q-140 0 -244 -104t-104 -243q0 -117 79 -195.5t198 -78.5q93 0 179 54l24 -34q-98 -63 -208 -63zM378 209q42 0 74 41l19 95q-19 28 -58 28q-44 0 -71 -30t-27 -70q0 -29 17 -46.5
t46 -17.5z" />
    <glyph glyph-name="A" unicode="A" horiz-adv-x="710" 
d="M674 0h-219l-7 78h-240l-41 -78h-239l393 667h254zM433 254l-19 215l-113 -215h132z" />
    <glyph glyph-name="B" unicode="B" horiz-adv-x="697" 
d="M419 0h-419l147 667h371q94 0 143.5 -49.5t49.5 -116.5q0 -63 -45 -114t-105 -56q46 -13 70.5 -50t24.5 -82q0 -35 -13 -68.5t-39 -63.5t-74 -48.5t-111 -18.5zM447 421q26 0 37.5 13t11.5 32q0 14 -9.5 23.5t-26.5 9.5h-146l-19 -78h152zM398 168q25 0 41 13t16 34
q0 17 -10.5 27.5t-27.5 10.5h-159l-19 -85h159z" />
    <glyph glyph-name="C" unicode="C" horiz-adv-x="697" 
d="M376 -12q-147 0 -247.5 84t-100.5 222q0 170 115.5 277t285.5 107q70 0 127.5 -19t95 -52t61.5 -70t36 -80l-194 -61q-9 47 -46 75.5t-89 28.5q-79 0 -131 -57.5t-52 -134.5q0 -59 41.5 -100.5t108.5 -41.5q39 0 78.5 22.5t56.5 54.5l158 -102q-57 -82 -139.5 -117.5
t-164.5 -35.5z" />
    <glyph glyph-name="D" unicode="D" horiz-adv-x="736" 
d="M297 0h-297l147 667h293q75 0 143.5 -34t113.5 -101.5t45 -152.5q0 -54 -13.5 -105t-46.5 -101.5t-82 -88t-127 -61t-176 -23.5zM310 491l-69 -315h93q91 0 145 54t54 134q0 54 -36 90.5t-94 36.5h-93z" />
    <glyph glyph-name="E" unicode="E" horiz-adv-x="596" 
d="M506 0h-506l147 667h506l-39 -176h-304l-14 -66h297l-39 -176h-297l-16 -73h304z" />
    <glyph glyph-name="F" unicode="F" horiz-adv-x="592" 
d="M202 0h-202l147 667h506l-39 -176h-304l-14 -66h297l-39 -176h-297z" />
    <glyph glyph-name="G" unicode="G" horiz-adv-x="726" 
d="M356 -12q-137 0 -232.5 86t-95.5 220q0 172 119.5 278t301.5 106q110 0 186.5 -57t100.5 -128l-186 -76q-8 32 -44.5 57.5t-80.5 25.5q-82 0 -135 -58t-53 -134q0 -59 40 -100.5t102 -41.5q82 0 122 55h-142l40 176h354q-28 -204 -132.5 -306.5t-264.5 -102.5z" />
    <glyph glyph-name="H" unicode="H" horiz-adv-x="751" 
d="M643 0h-202l56 255h-239l-56 -255h-202l147 667h202l-52 -236h239l52 236h202z" />
    <glyph glyph-name="I" unicode="I" horiz-adv-x="310" 
d="M202 0h-202l147 667h202z" />
    <glyph glyph-name="J" unicode="J" horiz-adv-x="498" 
d="M171 -12q-135 0 -207 66l104 153q14 -17 38.5 -29t49.5 -12q69 0 85 75l94 426h202l-95 -429q-29 -130 -92.5 -190t-178.5 -60z" />
    <glyph glyph-name="K" unicode="K" horiz-adv-x="671" 
d="M635 0h-236l-103 241l-53 -56l-41 -185h-202l147 667h202l-52 -236l217 236h257l-320 -310z" />
    <glyph glyph-name="L" unicode="L" horiz-adv-x="536" 
d="M455 0h-455l147 667h202l-108 -491h253z" />
    <glyph glyph-name="M" unicode="M" horiz-adv-x="900" 
d="M792 0h-202l88 401l-237 -401h-90l-61 401l-88 -401h-202l147 667h272l46 -320l188 320h286z" />
    <glyph glyph-name="N" unicode="N" horiz-adv-x="750" 
d="M642 0h-194l-170 346l-76 -346h-202l147 667h208l160 -324l72 324h202z" />
    <glyph glyph-name="O" unicode="O" horiz-adv-x="766" 
d="M376 -12q-150 0 -249 85.5t-99 220.5q0 161 114.5 272.5t286.5 111.5q149 0 248 -85t99 -219q0 -162 -114 -274t-286 -112zM387 166q78 0 129 57t51 135q0 62 -41.5 102t-108.5 40q-78 0 -129 -57t-51 -135q0 -62 41.5 -102t108.5 -40z" />
    <glyph glyph-name="P" unicode="P" horiz-adv-x="662" 
d="M202 0h-202l147 667h352q83 0 139.5 -57.5t56.5 -139.5q0 -41 -14.5 -82.5t-45.5 -83t-92 -68t-143 -26.5h-152zM408 386h2q30 0 53 16.5t23 44.5q0 44 -55 44h-121l-23 -105h121z" />
    <glyph glyph-name="Q" unicode="Q" horiz-adv-x="766" 
d="M376 -12q-150 0 -249 85.5t-99 220.5q0 161 114.5 272.5t286.5 111.5q149 0 248 -85t99 -219q0 -91 -39 -170.5t-109 -132.5l28 -48l-161 -73l-27 48q-50 -10 -92 -10zM338 224l161 73l31 -56q37 53 37 117q0 62 -41.5 102t-108.5 40q-78 0 -129 -57t-51 -135
q0 -58 37 -97.5t97 -44.5z" />
    <glyph glyph-name="R" unicode="R" horiz-adv-x="678" 
d="M597 0h-222l-46 210h-81l-46 -210h-202l147 667h324q94 0 159 -56t65 -146q0 -85 -47.5 -150t-116.5 -90zM410 386q34 0 55 14.5t21 42.5q0 21 -16 34.5t-40 13.5h-120l-23 -105h123z" />
    <glyph glyph-name="S" unicode="S" horiz-adv-x="613" 
d="M316 -12q-106 0 -195 35t-139 95l120 144q35 -45 99 -73.5t131 -28.5q26 0 39.5 9t13.5 20q0 15 -33 28t-80 28.5t-93.5 37.5t-79.5 63.5t-33 97.5q0 94 75.5 163.5t210.5 69.5q83 0 160 -28.5t131 -82.5l-121 -140q-39 39 -95.5 60t-107.5 21q-19 0 -30 -7.5t-11 -19.5
q0 -14 33 -27t80 -28.5t94 -37.5t80 -63t33 -95q0 -105 -77.5 -173t-204.5 -68z" />
    <glyph glyph-name="T" unicode="T" horiz-adv-x="595" 
d="M345 0h-202l108 491h-179l39 176h559l-39 -176h-178z" />
    <glyph glyph-name="U" unicode="U" horiz-adv-x="767" 
d="M376 -12q-158 0 -239.5 66t-81.5 178q0 17 5 42l87 393h205l-86 -388q-2 -10 -2 -24q1 -36 30 -63.5t82 -27.5q58 0 93 31.5t46 83.5l86 388h205l-87 -392q-62 -287 -343 -287z" />
    <glyph glyph-name="V" unicode="V" horiz-adv-x="710" 
d="M428 0h-254l-99 667h219l45 -449l243 449h239z" />
    <glyph glyph-name="W" unicode="W" horiz-adv-x="954" 
d="M721 0h-212l-3 378l-169 -378h-212l-44 667h221l-4 -408l191 408h152l11 -408l175 408h232z" />
    <glyph glyph-name="X" unicode="X" horiz-adv-x="684" 
d="M648 0h-228l-86 192l-158 -192h-248l307 354l-145 313h227l75 -178l139 178h249l-288 -336z" />
    <glyph glyph-name="Y" unicode="Y" horiz-adv-x="664" 
d="M380 0h-202l58 265l-161 402h217l74 -225l172 225h237l-337 -402z" />
    <glyph glyph-name="Z" unicode="Z" horiz-adv-x="600" 
d="M510 0h-528l35 160l317 331h-244l39 176h521l-35 -159l-318 -332h252z" />
    <glyph glyph-name="bracketleft" unicode="[" horiz-adv-x="317" 
d="M202 -190h-245l193 868h245l-25 -114h-120l-142 -640h120z" />
    <glyph glyph-name="backslash" unicode="\" horiz-adv-x="362" 
d="M178 -20l-80 707h125l80 -707h-125z" />
    <glyph glyph-name="bracketright" unicode="]" horiz-adv-x="317" 
d="M166 -190h-244l25 114h120l142 640h-120l25 114h245z" />
    <glyph glyph-name="asciicircum" unicode="^" horiz-adv-x="450" 
d="M450 333h-120l-32 215l-127 -215h-133l217 334h129z" />
    <glyph glyph-name="underscore" unicode="_" horiz-adv-x="564" 
d="M478 -154h-569l26 114h569z" />
    <glyph glyph-name="grave" unicode="`" horiz-adv-x="275" 
d="M344 556h-120l-123 144h155z" />
    <glyph glyph-name="a" unicode="a" horiz-adv-x="559" 
d="M467 0h-180l10 46q-51 -58 -138 -58q-65 0 -110.5 37t-45.5 103q0 79 51 126t126 47q96 0 160 -57l8 35q2 8 2 17q0 26 -28 42t-70 16q-67 0 -125 -34l-38 123q86 52 203 52q104 0 172.5 -41t68.5 -128q0 -23 -7 -58zM245 105q48 0 70 24l6 26q-24 29 -77 29
q-59 0 -59 -42q0 -37 60 -37z" />
    <glyph glyph-name="b" unicode="b" horiz-adv-x="596" 
d="M327 -12q-95 0 -140 63l-11 -51h-180l147 667h180l-52 -235q58 63 131 63q83 0 131.5 -52.5t48.5 -148.5q0 -52 -16 -104.5t-46.5 -98.5t-80.5 -74.5t-112 -28.5zM295 147q43 0 72 31.5t29 77.5q0 35 -23.5 57.5t-56.5 22.5q-40 0 -73 -33l-28 -123q30 -33 80 -33z" />
    <glyph glyph-name="c" unicode="c" horiz-adv-x="502" 
d="M268 -12q-116 0 -184.5 63t-68.5 161q0 119 84 201t207 82q78 0 131.5 -28t80.5 -72l-134 -103q-26 44 -80 44q-47 0 -77 -31.5t-30 -80.5q0 -34 26 -55.5t63 -21.5q47 0 81 39l96 -119q-29 -31 -80 -55t-115 -24z" />
    <glyph glyph-name="d" unicode="d" horiz-adv-x="596" 
d="M268 495q95 0 140 -63l52 235h180l-148 -667h-180l12 51q-58 -63 -131 -63q-83 0 -131.5 52.5t-48.5 148.5q0 52 16 104.5t46.5 98.5t80.5 74.5t112 28.5zM300 336q-43 0 -72 -31.5t-29 -77.5q0 -35 23.5 -57.5t56.5 -22.5q40 0 73 33l28 123q-30 33 -80 33z" />
    <glyph glyph-name="e" unicode="e" horiz-adv-x="543" 
d="M279 -12q-120 0 -192 58t-72 162q0 118 81.5 202.5t205.5 84.5q96 0 161 -57.5t65 -162.5q0 -49 -11 -89h-324v-1q0 -6 9.5 -19t34 -27t55.5 -14q70 0 105 24l55 -117q-70 -44 -173 -44zM369 300v1q0 18 -18 37.5t-56 19.5q-32 0 -55.5 -19t-29.5 -39h159z" />
    <glyph glyph-name="f" unicode="f" horiz-adv-x="371" 
d="M213 0h-180l72 327h-80l35 156h79l6 25q17 74 71.5 121.5t133.5 47.5q76 0 123 -28l-59 -117q-14 12 -39 12q-42 0 -50 -36l-6 -25h99l-35 -156h-98z" />
    <glyph glyph-name="g" unicode="g" horiz-adv-x="595" 
d="M212 -196q-161 0 -251 86l101 119q21 -27 63.5 -42.5t83.5 -15.5q89 0 113 102l6 25q-54 -65 -132 -65t-130 46.5t-52 145.5q0 114 68.5 202t181.5 88q40 0 78.5 -16.5t63.5 -46.5l12 51h180l-96 -430q-14 -60 -38.5 -105.5t-53.5 -72t-65 -43.5t-67.5 -22.5t-65.5 -5.5z
M284 172q41 0 72 34l20 91q-27 39 -85 39q-39 0 -65 -24t-26 -70q0 -30 23.5 -50t60.5 -20z" />
    <glyph glyph-name="h" unicode="h" horiz-adv-x="608" 
d="M504 0h-180l58 268q3 10 3 23q0 45 -65 45q-37 0 -78 -37l-65 -299h-180l147 667h180l-54 -239q73 67 152 67q74 0 116.5 -35.5t42.5 -91.5q0 -17 -5 -39z" />
    <glyph glyph-name="i" unicode="i" horiz-adv-x="280" 
d="M211 518q-39 0 -65 25t-26 61q0 53 36 84.5t78 31.5q39 0 65 -25t26 -61q0 -53 -36 -84.5t-78 -31.5zM176 0h-180l107 483h180z" />
    <glyph glyph-name="j" unicode="j" horiz-adv-x="280" 
d="M-39 -196q-104 0 -153 40l70 128q20 -21 56 -21q50 0 66 70l103 462h180l-103 -462q-47 -217 -219 -217zM211 518q-39 0 -65 25t-26 61q0 53 36 84.5t78 31.5q39 0 65 -25t26 -61q0 -53 -36 -84.5t-78 -31.5z" />
    <glyph glyph-name="k" unicode="k" horiz-adv-x="557" 
d="M515 0h-216l-51 159l-48 -50l-24 -109h-180l147 667h180l-77 -346l142 162h223l-215 -220z" />
    <glyph glyph-name="l" unicode="l" horiz-adv-x="328" 
d="M203 -12q-85 0 -131.5 32.5t-46.5 90.5q0 20 4 37l114 519h180l-103 -467q-2 -8 -2 -18q0 -15 13 -25t33 -10t25 5v-144q-26 -20 -86 -20z" />
    <glyph glyph-name="m" unicode="m" horiz-adv-x="897" 
d="M793 0h-180l59 268q3 18 3 23q0 22 -16 33.5t-40 11.5q-36 0 -69 -37l-66 -299h-180l59 268q4 12 4 23q-2 45 -57 45q-36 0 -68 -37l-66 -299h-180l107 483h180l-13 -55q67 67 142 67q36 0 66.5 -12t46.5 -28.5t24.5 -30.5t8.5 -21v-1q23 28 42 45.5t52 32.5t69 15
q62 0 106 -34t44 -93q0 -19 -5 -39z" />
    <glyph glyph-name="n" unicode="n" horiz-adv-x="607" 
d="M503 0h-180l59 268q3 13 3 23q0 45 -65 45q-37 0 -78 -37l-66 -299h-180l107 483h180l-13 -55q73 67 152 67q74 0 116.5 -35.5t42.5 -91.5q0 -17 -5 -39z" />
    <glyph glyph-name="o" unicode="o" horiz-adv-x="577" 
d="M272 -12q-123 0 -190.5 63.5t-67.5 161.5q0 114 82 198t207 84q123 0 190.5 -63.5t67.5 -161.5q0 -114 -82 -198t-207 -84zM279 147q44 0 71 33.5t27 80.5q0 36 -21.5 55.5t-59.5 19.5q-44 0 -71 -33.5t-27 -80.5q0 -36 21.5 -55.5t59.5 -19.5z" />
    <glyph glyph-name="p" unicode="p" horiz-adv-x="595" 
d="M327 -12q-95 0 -140 63l-52 -235h-180l148 667h180l-12 -51q58 63 131 63q83 0 131.5 -52.5t48.5 -148.5q0 -52 -16 -104.5t-46.5 -98.5t-80.5 -74.5t-112 -28.5zM295 147q43 0 72 31.5t29 77.5q0 35 -23.5 57.5t-56.5 22.5q-40 0 -73 -33l-28 -123q30 -33 80 -33z" />
    <glyph glyph-name="q" unicode="q" horiz-adv-x="595" 
d="M268 495q95 0 140 -63l11 51h180l-148 -667h-180l53 235q-58 -63 -131 -63q-83 0 -131.5 52.5t-48.5 148.5q0 52 16 104.5t46.5 98.5t80.5 74.5t112 28.5zM300 336q-43 0 -72 -31.5t-29 -77.5q0 -35 23.5 -57.5t56.5 -22.5q40 0 73 33l28 123q-30 33 -80 33z" />
    <glyph glyph-name="r" unicode="r" horiz-adv-x="390" 
d="M176 0h-180l107 483h180l-12 -53q65 67 163 67l-39 -176q-24 8 -54 8q-61 0 -101 -37z" />
    <glyph glyph-name="s" unicode="s" horiz-adv-x="490" 
d="M231 -12q-69 0 -136.5 23.5t-114.5 65.5l92 113q27 -26 78.5 -50t97.5 -24q13 0 22 5t9 13q0 15 -24 25t-58.5 19t-69.5 23t-59 44t-24 73q0 72 57.5 124.5t157.5 52.5q135 0 225 -78l-84 -109q-22 22 -61 40t-78 18q-18 0 -27.5 -7t-9.5 -14q0 -10 24 -18.5t59 -18
t69.5 -24t58.5 -44.5t24 -73q0 -78 -61.5 -128.5t-166.5 -50.5z" />
    <glyph glyph-name="t" unicode="t" horiz-adv-x="382" 
d="M240 -12q-82 0 -130 30.5t-48 91.5q0 19 4 38l39 179h-80l35 156h80l29 132h180l-29 -132h98l-35 -156h-98l-28 -127q-1 -5 -1 -14q0 -39 45 -39q17 0 25 5v-144q-29 -20 -86 -20z" />
    <glyph glyph-name="u" unicode="u" horiz-adv-x="606" 
d="M102 483h180l-59 -267q-3 -14 -3 -23q0 -46 65 -46q36 0 78 38l66 298h180l-107 -483h-180l13 55q-73 -67 -152 -67q-74 0 -116.5 35.5t-42.5 91.5q0 17 5 39z" />
    <glyph glyph-name="v" unicode="v" horiz-adv-x="535" 
d="M309 0h-191l-80 483h185l30 -276l155 276h195z" />
    <glyph glyph-name="w" unicode="w" horiz-adv-x="805" 
d="M623 0h-196l-20 270l-137 -270h-196l-33 483h180l5 -266l144 266h161l25 -266l123 266h191z" />
    <glyph glyph-name="x" unicode="x" horiz-adv-x="521" 
d="M479 0h-192l-47 128l-105 -128h-201l212 248l-95 235h192l40 -113l90 113h202l-201 -235z" />
    <glyph glyph-name="y" unicode="y" horiz-adv-x="606" 
d="M223 -196q-162 0 -251 86l101 119q21 -27 64.5 -42.5t82.5 -15.5q50 0 75 25t38 77l8 33q-23 -21 -39 -32t-46.5 -22.5t-65.5 -11.5q-72 0 -115.5 34t-43.5 94q0 14 5 38l67 297h180l-53 -236q-3 -15 -3 -22q0 -46 65 -46q37 0 78 37l59 267h180l-96 -431
q-24 -108 -94.5 -178t-195.5 -70z" />
    <glyph glyph-name="z" unicode="z" horiz-adv-x="486" 
d="M399 0h-420l29 132l208 195h-165l35 156h416l-28 -126l-214 -201h173z" />
    <glyph glyph-name="braceleft" unicode="{" horiz-adv-x="316" 
d="M202 -190h-43q-69 0 -117 43t-48 107q0 18 4 34l31 139q2 12 2 18q0 21 -10.5 33.5t-29.5 12.5l21 94q52 0 66 64l31 138q42 185 226 185h60l-25 -114h-60q-60 0 -76 -70l-38 -172q-19 -78 -66 -91q29 -17 29 -57q0 -18 -4 -34l-32 -145q-2 -12 -2 -17q0 -24 15 -39
t39 -15h53z" />
    <glyph glyph-name="bar" unicode="|" horiz-adv-x="222" 
d="M188 -20h-114v707h114v-707z" />
    <glyph glyph-name="braceright" unicode="}" horiz-adv-x="316" 
d="M113 678h43q69 0 117 -43t48 -107q0 -18 -4 -34l-31 -139q-2 -12 -2 -18q0 -21 10.5 -33.5t29.5 -12.5l-21 -94q-52 0 -66 -64l-31 -138q-42 -185 -226 -185h-60l25 114h60q60 0 76 70l38 172q19 78 66 91q-29 17 -29 57q0 18 4 34l32 145q2 12 2 17q0 24 -15 39t-39 15
h-53z" />
    <glyph glyph-name="asciitilde" unicode="~" horiz-adv-x="518" 
d="M470 667l113 -14q-53 -252 -199 -252q-42 0 -67 16.5t-32 40.5t-9 48t-6 40.5t-15 16.5q-22 0 -45.5 -53t-32.5 -109l-115 13q49 253 200 253q42 0 67 -17t32 -40.5t9 -47.5t6 -41t15 -17q22 0 46.5 55t32.5 108z" />
    <glyph glyph-name="uni00A0" unicode="&#xa0;" horiz-adv-x="255" 
 />
    <glyph glyph-name="exclamdown" unicode="&#xa1;" horiz-adv-x="280" 
d="M57 235h162l-66 -419h-214zM181 496q40 0 68.5 -29t28.5 -70q0 -47 -35 -81.5t-82 -34.5q-40 0 -68.5 29t-28.5 70q0 47 35 81.5t82 34.5z" />
    <glyph glyph-name="cent" unicode="&#xa2;" horiz-adv-x="502" 
d="M152 -100l23 101q-76 22 -118 78.5t-42 132.5q0 114 77 194t192 88l16 71h126l-19 -86q74 -25 111 -84l-134 -103q-26 44 -80 44q-47 0 -77 -31.5t-30 -80.5q0 -34 26 -55.5t63 -21.5q47 0 81 39l96 -119q-62 -67 -165 -77l-20 -90h-126z" />
    <glyph glyph-name="sterling" unicode="&#xa3;" horiz-adv-x="581" 
d="M31 270l25 109h47q-16 43 -16 80q0 94 83 156t198 62q101 0 171.5 -37.5t93.5 -110.5l-181 -74q-10 60 -74 60q-32 0 -52 -23.5t-20 -57.5q0 -19 8 -55h135l-25 -109h-113q-11 -30 -30.5 -54t-38.5 -32q21 7 42 7q27 0 65 -12.5t62 -12.5q40 0 71 33l41 -159
q-41 -52 -129 -52q-47 0 -129.5 21t-100.5 21q-50 0 -108 -37l-37 132q50 24 80 62t30 82v1h-98z" />
    <glyph glyph-name="yen" unicode="&#xa5;" horiz-adv-x="664" 
d="M380 0h-202l23 107h-207l23 105h207l12 53h-207l24 105h141l-119 297h217l74 -225l172 225h237l-249 -297h143l-24 -105h-207l-12 -53h207l-23 -105h-207z" />
    <glyph glyph-name="brokenbar" unicode="&#xa6;" horiz-adv-x="222" 
d="M188 -20h-114v316h114v-316zM188 371h-114v316h114v-316z" />
    <glyph glyph-name="section" unicode="&#xa7;" horiz-adv-x="500" 
d="M497 344q0 -50 -31 -92t-76 -60q52 -31 52 -96q0 -78 -63 -127.5t-159 -49.5q-78 0 -148 22.5t-115 63.5l94 106q31 -31 77.5 -50.5t91.5 -19.5q20 0 32 8t12 19q0 17 -24 28.5t-58 22t-68 25t-58 44t-24 72.5q0 101 110 146q-55 31 -55 102q0 77 61.5 123t155.5 46
q148 0 230 -72l-88 -98q-22 21 -59 34.5t-76 13.5q-47 0 -47 -29q0 -14 24 -25t58.5 -20.5t68.5 -23.5t58 -43t24 -70zM311 302q0 19 -13 31.5t-31 16.5q-54 -9 -54 -55q0 -17 15 -29.5t37 -18.5q21 5 33.5 21t12.5 34z" />
    <glyph glyph-name="dieresis" unicode="&#xa8;" horiz-adv-x="318" 
d="M440 628q0 -39 -31 -69t-70 -30q-34 0 -56.5 22.5t-22.5 56.5q0 39 31 69t70 30q34 0 56.5 -22.5t22.5 -56.5zM224 628q0 -39 -31 -69t-70 -30q-34 0 -56.5 22.5t-22.5 56.5q0 39 31 69t70 30q34 0 56.5 -22.5t22.5 -56.5z" />
    <glyph glyph-name="copyright" unicode="&#xa9;" horiz-adv-x="778" 
d="M754 334q0 -143 -101.5 -244t-244.5 -101q-142 0 -243 101t-101 244t100.5 244t243.5 101t244.5 -101t101.5 -244zM712 334q0 125 -89.5 214t-214.5 89t-213.5 -89t-88.5 -214t89 -214t213 -89q125 0 214.5 89t89.5 214zM508 221l30 -40q-65 -56 -143 -56q-85 0 -138 51
t-53 131q0 100 69 168t162 68q112 0 163 -81l-45 -32q-37 66 -121 66q-67 0 -120 -54t-53 -133q0 -57 37 -97t100 -40q61 0 112 49z" />
    <glyph glyph-name="ordfeminine" unicode="&#xaa;" horiz-adv-x="417" 
d="M271 549q-31 0 -51.5 -24.5t-20.5 -58.5q0 -48 50 -48q24 0 43 17l22 101q-17 13 -43 13zM337 640h127l-69 -314h-128l6 31q-35 -39 -82 -39q-52 0 -87.5 34.5t-35.5 96.5q0 86 49 142.5t118 56.5q65 0 95 -39z" />
    <glyph glyph-name="guillemotleft" unicode="&#xab;" horiz-adv-x="615" 
d="M305 63h-156l-120 180l200 177h164l-204 -182zM540 63h-156l-120 180l200 177h164l-204 -182z" />
    <glyph glyph-name="logicalnot" unicode="&#xac;" horiz-adv-x="527" 
d="M532 478l-63 -288h-108l40 183h-344l23 105h452z" />
    <glyph glyph-name="registered" unicode="&#xae;" horiz-adv-x="494" 
d="M508 465q0 -88 -62.5 -150t-150.5 -62t-149.5 62t-61.5 150t62 150t150 62t150 -61.5t62 -150.5zM473 465q0 74 -52 125.5t-126 51.5t-125 -51.5t-51 -125.5q0 -73 51.5 -125t124.5 -52t125.5 52t52.5 125zM371 343h-43l-42 96h-41l-21 -96h-37l53 243h94q34 0 53.5 -19
t19.5 -45q0 -33 -24.5 -57.5t-55.5 -24.5zM368 520q0 35 -43 35h-54l-19 -84h62q25 0 39.5 14t14.5 35z" />
    <glyph glyph-name="macron" unicode="&#xaf;" horiz-adv-x="363" 
d="M439 591h-362l21 97h362z" />
    <glyph glyph-name="degree" unicode="&#xb0;" horiz-adv-x="331" 
d="M377 528q0 -61 -43.5 -104.5t-105.5 -43.5t-105 43t-43 105t43.5 105.5t104.5 43.5q62 0 105.5 -43.5t43.5 -105.5zM287 528q0 24 -17.5 41.5t-41.5 17.5t-40.5 -17.5t-16.5 -41.5t16 -40.5t40 -16.5t42 16.5t18 40.5z" />
    <glyph glyph-name="plusminus" unicode="&#xb1;" 
d="M499 328h-168l-43 -193h-116l43 193h-168l23 105h168l42 185h116l-42 -185h168zM427 0h-452l23 105h452z" />
    <glyph glyph-name="twosuperior" unicode="&#xb2;" horiz-adv-x="407" 
d="M419 421h-338l22 99q111 63 161 94.5t63.5 45.5t13.5 30q0 33 -51 33q-31 0 -62 -12t-49 -29l-52 88q32 27 79 42t90 15q82 0 131.5 -34.5t49.5 -89.5q0 -45 -40.5 -85t-140.5 -93h146z" />
    <glyph glyph-name="threesuperior" unicode="&#xb3;" horiz-adv-x="407" 
d="M448 531q0 -46 -45.5 -81.5t-122.5 -35.5q-65 0 -119 20.5t-79 53.5l79 82q41 -52 112 -52q45 0 45 28q0 26 -79 26q-31 0 -37 -1l22 102q9 -1 69 -1q52 0 52 25q0 26 -66 26q-61 0 -100 -31l-41 82q62 53 155 53q88 0 137.5 -30t49.5 -81q0 -36 -28 -65.5t-82 -32.5
q78 -20 78 -87z" />
    <glyph glyph-name="acute" unicode="&#xb4;" horiz-adv-x="275" 
d="M376 700l-187 -144h-122l152 144h157z" />
    <glyph glyph-name="mu" unicode="&#xb5;" horiz-adv-x="606" 
d="M135 -184h-180l148 667h180l-59 -268q-15 -68 54 -68q43 0 85 38l66 298h180l-107 -483h-180l11 54q-64 -60 -160 -66z" />
    <glyph glyph-name="paragraph" unicode="&#xb6;" horiz-adv-x="449" 
d="M350 -100h-80l153 687h-68l-153 -687h-80l94 423q-57 0 -97 44.5t-40 111.5q0 73 56.5 130.5t137.5 57.5h247z" />
    <glyph glyph-name="periodcentered" unicode="&#xb7;" horiz-adv-x="283" 
d="M131 138q-40 0 -68.5 29t-28.5 70q0 47 35 81.5t82 34.5q40 0 68.5 -29t28.5 -70q0 -47 -35 -81.5t-82 -34.5z" />
    <glyph glyph-name="cedilla" unicode="&#xb8;" horiz-adv-x="237" 
d="M41 -200q-86 0 -130 44l43 60q43 -36 86 -36q38 0 38 24q0 17 -22 17q-14 0 -24 -12l-52 34l48 80h80l-38 -58q13 9 29 9q25 0 42.5 -18t17.5 -47q0 -44 -34 -70.5t-84 -26.5z" />
    <glyph glyph-name="onesuperior" unicode="&#xb9;" horiz-adv-x="336" 
d="M315 421h-132l50 229l-83 -66l-58 79l198 158h113z" />
    <glyph glyph-name="ordmasculine" unicode="&#xba;" horiz-adv-x="405" 
d="M244 318q-80 0 -127 42t-47 107q0 78 59.5 129.5t137.5 51.5q80 0 127 -42t47 -107q0 -78 -59.5 -129.5t-137.5 -51.5zM247 418q33 0 48.5 25.5t15.5 57.5q0 45 -47 45q-33 0 -48.5 -25.5t-15.5 -57.5q0 -45 47 -45z" />
    <glyph glyph-name="guillemotright" unicode="&#xbb;" horiz-adv-x="615" 
d="M77 420h156l120 -180l-200 -177h-164l204 182zM312 420h156l120 -180l-200 -177h-164l204 182z" />
    <glyph glyph-name="onequarter" unicode="&#xbc;" horiz-adv-x="897" 
d="M785 667l-574 -667h-97l573 667h98zM845 71h-47l-15 -71h-131l15 71h-197l20 87l196 242h185l-50 -227h47zM690 173l25 114l-92 -114h67zM281 267h-132l50 229l-83 -66l-58 79l198 158h113z" />
    <glyph glyph-name="onehalf" unicode="&#xbd;" horiz-adv-x="927" 
d="M785 667l-574 -667h-97l573 667h98zM846 0h-338l22 99q111 63 161 94.5t63.5 45.5t13.5 30q0 33 -51 33q-31 0 -62 -12t-49 -29l-52 88q32 27 79 42t90 15q82 0 131.5 -34.5t49.5 -89.5q0 -45 -40.5 -85t-140.5 -93h146zM281 267h-132l50 229l-83 -66l-58 79l198 158h113
z" />
    <glyph glyph-name="threequarters" unicode="&#xbe;" horiz-adv-x="964" 
d="M852 667l-574 -667h-97l573 667h98zM912 71h-47l-15 -71h-131l15 71h-197l20 87l196 242h185l-50 -227h47zM757 173l25 114l-92 -114h67zM414 377q0 -46 -45.5 -81.5t-122.5 -35.5q-65 0 -119 20.5t-79 53.5l79 82q41 -52 112 -52q45 0 45 28q0 26 -79 26q-31 0 -37 -1
l22 102q9 -1 69 -1q52 0 52 25q0 26 -66 26q-61 0 -100 -31l-41 82q62 53 155 53q88 0 137.5 -30t49.5 -81q0 -36 -28 -65.5t-82 -32.5q78 -20 78 -87z" />
    <glyph glyph-name="questiondown" unicode="&#xbf;" horiz-adv-x="401" 
d="M135 222l166 36q10 -30 10 -69q0 -41 -15.5 -72.5t-37.5 -48t-44.5 -28t-38 -21t-15.5 -18.5q0 -20 42 -20q49 0 89 31l83 -139q-90 -68 -205 -68q-92 0 -157 39.5t-65 109.5q0 49 20 84t48.5 54t56.5 34.5t48 34.5t20 44q0 9 -5 17zM264 495q40 0 68.5 -29t28.5 -70
q0 -47 -35 -81.5t-82 -34.5q-40 0 -68.5 29t-28.5 70q0 47 35 81.5t82 34.5z" />
    <glyph glyph-name="Agrave" unicode="&#xc0;" horiz-adv-x="710" 
d="M561 728h-120l-123 144h155zM674 0h-219l-7 78h-240l-41 -78h-239l393 667h254zM433 254l-19 215l-113 -215h132z" />
    <glyph glyph-name="Aacute" unicode="&#xc1;" horiz-adv-x="710" 
d="M673 872l-187 -144h-122l152 144h157zM674 0h-219l-7 78h-240l-41 -78h-239l393 667h254zM433 254l-19 215l-113 -215h132z" />
    <glyph glyph-name="Acircumflex" unicode="&#xc2;" horiz-adv-x="710" 
d="M631 728h-103l-48 73l-77 -73h-107l120 144h156zM674 0h-219l-7 78h-240l-41 -78h-239l393 667h254zM433 254l-19 215l-113 -215h132z" />
    <glyph glyph-name="Atilde" unicode="&#xc3;" horiz-adv-x="710" 
d="M534 726q-37 0 -72.5 21.5t-50.5 21.5q-21 0 -28 -37h-90q14 71 42.5 102.5t84.5 31.5q37 0 73 -21.5t51 -21.5q19 0 28 37h90q-16 -72 -44 -103t-84 -31zM674 0h-219l-7 78h-240l-41 -78h-239l393 667h254zM433 254l-19 215l-113 -215h132z" />
    <glyph glyph-name="Adieresis" unicode="&#xc4;" horiz-adv-x="710" 
d="M675 805q0 -39 -31 -69t-70 -30q-34 0 -56.5 22.5t-22.5 56.5q0 39 31 69t70 30q34 0 56.5 -22.5t22.5 -56.5zM459 805q0 -39 -31 -69t-70 -30q-34 0 -56.5 22.5t-22.5 56.5q0 39 31 69t70 30q34 0 56.5 -22.5t22.5 -56.5zM674 0h-219l-7 78h-240l-41 -78h-239l393 667
h254zM433 254l-19 215l-113 -215h132z" />
    <glyph glyph-name="Aring" unicode="&#xc5;" horiz-adv-x="710" 
d="M468 692q-46 0 -74 28t-28 74q0 50 36 86t86 36q46 0 74 -28t28 -74q0 -50 -36 -86t-86 -36zM476 770q14 0 25 11t11 25t-9 23t-23 9t-25 -11t-11 -25t9 -23t23 -9zM674 0h-219l-7 78h-240l-41 -78h-239l393 667h254zM433 254l-19 215l-113 -215h132z" />
    <glyph glyph-name="AE" unicode="&#xc6;" horiz-adv-x="989" 
d="M905 0h-506l17 78h-202l-58 -78h-235l542 667h589l-39 -176h-304l-14 -66h297l-39 -176h-297l-16 -73h304zM455 254l45 206l-153 -206h108z" />
    <glyph glyph-name="Ccedilla" unicode="&#xc7;" horiz-adv-x="697" 
d="M376 -12q-15 0 -23 1l-23 -36q13 9 29 9q25 0 42.5 -18t17.5 -47q0 -44 -34 -70.5t-84 -26.5q-86 0 -130 44l43 60q43 -36 86 -36q38 0 38 24q0 17 -22 17q-14 0 -24 -12l-52 34l40 68q-112 25 -182 103t-70 192q0 170 115.5 277t285.5 107q70 0 127.5 -19t95 -52
t61.5 -70t36 -80l-194 -61q-9 47 -46 75.5t-89 28.5q-79 0 -131 -57.5t-52 -134.5q0 -59 41.5 -100.5t108.5 -41.5q39 0 78.5 22.5t56.5 54.5l158 -102q-57 -82 -139.5 -117.5t-164.5 -35.5z" />
    <glyph glyph-name="Egrave" unicode="&#xc8;" horiz-adv-x="596" 
d="M513 728h-120l-123 144h155zM506 0h-506l147 667h506l-39 -176h-304l-14 -66h297l-39 -176h-297l-16 -73h304z" />
    <glyph glyph-name="Eacute" unicode="&#xc9;" horiz-adv-x="596" 
d="M624 872l-187 -144h-122l152 144h157zM506 0h-506l147 667h506l-39 -176h-304l-14 -66h297l-39 -176h-297l-16 -73h304z" />
    <glyph glyph-name="Ecircumflex" unicode="&#xca;" horiz-adv-x="596" 
d="M582 728h-103l-48 73l-77 -73h-107l120 144h156zM506 0h-506l147 667h506l-39 -176h-304l-14 -66h297l-39 -176h-297l-16 -73h304z" />
    <glyph glyph-name="Edieresis" unicode="&#xcb;" horiz-adv-x="596" 
d="M630 805q0 -39 -31 -69t-70 -30q-34 0 -56.5 22.5t-22.5 56.5q0 39 31 69t70 30q34 0 56.5 -22.5t22.5 -56.5zM414 805q0 -39 -31 -69t-70 -30q-34 0 -56.5 22.5t-22.5 56.5q0 39 31 69t70 30q34 0 56.5 -22.5t22.5 -56.5zM506 0h-506l147 667h506l-39 -176h-304l-14 -66
h297l-39 -176h-297l-16 -73h304z" />
    <glyph glyph-name="Igrave" unicode="&#xcc;" horiz-adv-x="310" 
d="M358 728h-120l-123 144h155zM202 0h-202l147 667h202z" />
    <glyph glyph-name="Iacute" unicode="&#xcd;" horiz-adv-x="310" 
d="M475 872l-187 -144h-122l152 144h157zM202 0h-202l147 667h202z" />
    <glyph glyph-name="Icircumflex" unicode="&#xce;" horiz-adv-x="310" 
d="M428 728h-103l-48 73l-77 -73h-107l120 144h156zM202 0h-202l147 667h202z" />
    <glyph glyph-name="Idieresis" unicode="&#xcf;" horiz-adv-x="310" 
d="M475 804q0 -39 -31 -69t-70 -30q-34 0 -56.5 22.5t-22.5 56.5q0 39 31 69t70 30q34 0 56.5 -22.5t22.5 -56.5zM259 804q0 -39 -31 -69t-70 -30q-34 0 -56.5 22.5t-22.5 56.5q0 39 31 69t70 30q34 0 56.5 -22.5t22.5 -56.5zM202 0h-202l147 667h202z" />
    <glyph glyph-name="Eth" unicode="&#xd0;" horiz-adv-x="757" 
d="M318 0h-297l56 254h-68l35 159h68l56 254h293q75 0 143.5 -34t113.5 -101.5t45 -152.5q0 -54 -13.5 -105t-46.5 -101.5t-82 -88t-127 -61t-176 -23.5zM358 176q90 1 143 55t53 133q0 54 -36 90.5t-94 36.5h-93l-17 -78h128l-35 -159h-128l-17 -78h96z" />
    <glyph glyph-name="Ntilde" unicode="&#xd1;" horiz-adv-x="750" 
d="M552 726q-37 0 -72.5 21.5t-50.5 21.5q-21 0 -28 -37h-90q14 71 42.5 102.5t84.5 31.5q37 0 73 -21.5t51 -21.5q19 0 28 37h90q-16 -72 -44 -103t-84 -31zM642 0h-194l-170 346l-76 -346h-202l147 667h208l160 -324l72 324h202z" />
    <glyph glyph-name="Ograve" unicode="&#xd2;" horiz-adv-x="766" 
d="M590 728h-120l-123 144h155zM376 -12q-150 0 -249 85.5t-99 220.5q0 161 114.5 272.5t286.5 111.5q149 0 248 -85t99 -219q0 -162 -114 -274t-286 -112zM387 166q78 0 129 57t51 135q0 62 -41.5 102t-108.5 40q-78 0 -129 -57t-51 -135q0 -62 41.5 -102t108.5 -40z" />
    <glyph glyph-name="Oacute" unicode="&#xd3;" horiz-adv-x="766" 
d="M701 872l-187 -144h-122l152 144h157zM376 -12q-150 0 -249 85.5t-99 220.5q0 161 114.5 272.5t286.5 111.5q149 0 248 -85t99 -219q0 -162 -114 -274t-286 -112zM387 166q78 0 129 57t51 135q0 62 -41.5 102t-108.5 40q-78 0 -129 -57t-51 -135q0 -62 41.5 -102
t108.5 -40z" />
    <glyph glyph-name="Ocircumflex" unicode="&#xd4;" horiz-adv-x="766" 
d="M661 728h-103l-48 73l-77 -73h-107l120 144h156zM376 -12q-150 0 -249 85.5t-99 220.5q0 161 114.5 272.5t286.5 111.5q149 0 248 -85t99 -219q0 -162 -114 -274t-286 -112zM387 166q78 0 129 57t51 135q0 62 -41.5 102t-108.5 40q-78 0 -129 -57t-51 -135
q0 -62 41.5 -102t108.5 -40z" />
    <glyph glyph-name="Otilde" unicode="&#xd5;" horiz-adv-x="766" 
d="M562 726q-37 0 -72.5 21.5t-50.5 21.5q-21 0 -28 -37h-90q14 71 42.5 102.5t84.5 31.5q37 0 73 -21.5t51 -21.5q19 0 28 37h90q-16 -72 -44 -103t-84 -31zM376 -12q-150 0 -249 85.5t-99 220.5q0 161 114.5 272.5t286.5 111.5q149 0 248 -85t99 -219q0 -162 -114 -274
t-286 -112zM387 166q78 0 129 57t51 135q0 62 -41.5 102t-108.5 40q-78 0 -129 -57t-51 -135q0 -62 41.5 -102t108.5 -40z" />
    <glyph glyph-name="Odieresis" unicode="&#xd6;" horiz-adv-x="766" 
d="M706 805q0 -39 -31 -69t-70 -30q-34 0 -56.5 22.5t-22.5 56.5q0 39 31 69t70 30q34 0 56.5 -22.5t22.5 -56.5zM490 805q0 -39 -31 -69t-70 -30q-34 0 -56.5 22.5t-22.5 56.5q0 39 31 69t70 30q34 0 56.5 -22.5t22.5 -56.5zM376 -12q-150 0 -249 85.5t-99 220.5
q0 161 114.5 272.5t286.5 111.5q149 0 248 -85t99 -219q0 -162 -114 -274t-286 -112zM387 166q78 0 129 57t51 135q0 62 -41.5 102t-108.5 40q-78 0 -129 -57t-51 -135q0 -62 41.5 -102t108.5 -40z" />
    <glyph glyph-name="multiply" unicode="&#xd7;" 
d="M366 129l-101 130l-166 -136l-66 80l169 138l-102 130l84 68l100 -130l167 136l65 -80l-167 -138l100 -130z" />
    <glyph glyph-name="Oslash" unicode="&#xd8;" horiz-adv-x="766" 
d="M376 -12q-127 0 -220 63l-54 -51h-138l123 115q-59 76 -59 179q0 161 114.5 272.5t286.5 111.5q118 0 204 -54l46 43h138l-111 -104q70 -80 70 -189q0 -162 -114 -274t-286 -112zM387 166q78 0 129 57t51 135q0 33 -14 63l-250 -234q37 -21 84 -21zM237 308q0 -26 7 -47
l241 225q-31 14 -68 14q-78 0 -129 -57t-51 -135z" />
    <glyph glyph-name="Ugrave" unicode="&#xd9;" horiz-adv-x="767" 
d="M591 728h-120l-123 144h155zM376 -12q-158 0 -239.5 66t-81.5 178q0 17 5 42l87 393h205l-86 -388q-2 -10 -2 -24q1 -36 30 -63.5t82 -27.5q58 0 93 31.5t46 83.5l86 388h205l-87 -392q-62 -287 -343 -287z" />
    <glyph glyph-name="Uacute" unicode="&#xda;" horiz-adv-x="767" 
d="M703 872l-187 -144h-122l152 144h157zM376 -12q-158 0 -239.5 66t-81.5 178q0 17 5 42l87 393h205l-86 -388q-2 -10 -2 -24q1 -36 30 -63.5t82 -27.5q58 0 93 31.5t46 83.5l86 388h205l-87 -392q-62 -287 -343 -287z" />
    <glyph glyph-name="Ucircumflex" unicode="&#xdb;" horiz-adv-x="767" 
d="M666 728h-103l-48 73l-77 -73h-107l120 144h156zM376 -12q-158 0 -239.5 66t-81.5 178q0 17 5 42l87 393h205l-86 -388q-2 -10 -2 -24q1 -36 30 -63.5t82 -27.5q58 0 93 31.5t46 83.5l86 388h205l-87 -392q-62 -287 -343 -287z" />
    <glyph glyph-name="Udieresis" unicode="&#xdc;" horiz-adv-x="767" 
d="M707 805q0 -39 -31 -69t-70 -30q-34 0 -56.5 22.5t-22.5 56.5q0 39 31 69t70 30q34 0 56.5 -22.5t22.5 -56.5zM491 805q0 -39 -31 -69t-70 -30q-34 0 -56.5 22.5t-22.5 56.5q0 39 31 69t70 30q34 0 56.5 -22.5t22.5 -56.5zM376 -12q-158 0 -239.5 66t-81.5 178q0 17 5 42
l87 393h205l-86 -388q-2 -10 -2 -24q1 -36 30 -63.5t82 -27.5q58 0 93 31.5t46 83.5l86 388h205l-87 -392q-62 -287 -343 -287z" />
    <glyph glyph-name="Yacute" unicode="&#xdd;" horiz-adv-x="664" 
d="M651 872l-187 -144h-122l152 144h157zM380 0h-202l58 265l-161 402h217l74 -225l172 225h237l-337 -402z" />
    <glyph glyph-name="Thorn" unicode="&#xde;" horiz-adv-x="662" 
d="M202 0h-202l147 667h202l-21 -96h150q85 0 140.5 -58.5t55.5 -138.5q0 -36 -9.5 -71t-32 -69.5t-55.5 -61t-84 -42.5t-113 -16h-153zM389 290q33 0 54.5 17.5t21.5 43.5q0 44 -55 44h-121l-23 -105h123z" />
    <glyph glyph-name="germandbls" unicode="&#xdf;" horiz-adv-x="688" 
d="M661 167q0 -74 -64 -126.5t-156 -52.5q-141 0 -224 84l91 111q56 -61 136 -61q14 0 25.5 6t11.5 14q0 14 -30.5 24.5t-67 19.5t-67 37.5t-30.5 74.5q0 39 14.5 69.5t35 48t40.5 29.5t34.5 22t14.5 19q0 32 -67 32q-66 0 -82 -67l-99 -451h-180l99 451q22 100 89.5 163
t182.5 63q96 0 172.5 -44.5t76.5 -113.5q0 -46 -24 -81.5t-52.5 -51.5t-52.5 -31.5t-24 -27.5q0 -7 20.5 -13t49 -14.5t57.5 -22t49.5 -42t20.5 -68.5z" />
    <glyph glyph-name="agrave" unicode="&#xe0;" horiz-adv-x="559" 
d="M447 556h-120l-123 144h155zM467 0h-180l10 46q-51 -58 -138 -58q-65 0 -110.5 37t-45.5 103q0 79 51 126t126 47q96 0 160 -57l8 35q2 8 2 17q0 26 -28 42t-70 16q-67 0 -125 -34l-38 123q86 52 203 52q104 0 172.5 -41t68.5 -128q0 -23 -7 -58zM245 105q48 0 70 24
l6 26q-24 29 -77 29q-59 0 -59 -42q0 -37 60 -37z" />
    <glyph glyph-name="aacute" unicode="&#xe1;" horiz-adv-x="559" 
d="M566 700l-187 -144h-122l152 144h157zM467 0h-180l10 46q-51 -58 -138 -58q-65 0 -110.5 37t-45.5 103q0 79 51 126t126 47q96 0 160 -57l8 35q2 8 2 17q0 26 -28 42t-70 16q-67 0 -125 -34l-38 123q86 52 203 52q104 0 172.5 -41t68.5 -128q0 -23 -7 -58zM245 105
q48 0 70 24l6 26q-24 29 -77 29q-59 0 -59 -42q0 -37 60 -37z" />
    <glyph glyph-name="acircumflex" unicode="&#xe2;" horiz-adv-x="559" 
d="M522 556h-103l-48 73l-77 -73h-107l120 144h156zM467 0h-180l10 46q-51 -58 -138 -58q-65 0 -110.5 37t-45.5 103q0 79 51 126t126 47q96 0 160 -57l8 35q2 8 2 17q0 26 -28 42t-70 16q-67 0 -125 -34l-38 123q86 52 203 52q104 0 172.5 -41t68.5 -128q0 -23 -7 -58z
M245 105q48 0 70 24l6 26q-24 29 -77 29q-59 0 -59 -42q0 -37 60 -37z" />
    <glyph glyph-name="atilde" unicode="&#xe3;" horiz-adv-x="559" 
d="M423 554q-37 0 -72.5 21.5t-50.5 21.5q-21 0 -28 -37h-90q14 71 42.5 102.5t84.5 31.5q37 0 73 -21.5t51 -21.5q19 0 28 37h90q-16 -72 -44 -103t-84 -31zM467 0h-180l10 46q-51 -58 -138 -58q-65 0 -110.5 37t-45.5 103q0 79 51 126t126 47q96 0 160 -57l8 35q2 8 2 17
q0 26 -28 42t-70 16q-67 0 -125 -34l-38 123q86 52 203 52q104 0 172.5 -41t68.5 -128q0 -23 -7 -58zM245 105q48 0 70 24l6 26q-24 29 -77 29q-59 0 -59 -42q0 -37 60 -37z" />
    <glyph glyph-name="adieresis" unicode="&#xe4;" horiz-adv-x="559" 
d="M561 628q0 -39 -31 -69t-70 -30q-34 0 -56.5 22.5t-22.5 56.5q0 39 31 69t70 30q34 0 56.5 -22.5t22.5 -56.5zM345 628q0 -39 -31 -69t-70 -30q-34 0 -56.5 22.5t-22.5 56.5q0 39 31 69t70 30q34 0 56.5 -22.5t22.5 -56.5zM467 0h-180l10 46q-51 -58 -138 -58
q-65 0 -110.5 37t-45.5 103q0 79 51 126t126 47q96 0 160 -57l8 35q2 8 2 17q0 26 -28 42t-70 16q-67 0 -125 -34l-38 123q86 52 203 52q104 0 172.5 -41t68.5 -128q0 -23 -7 -58zM245 105q48 0 70 24l6 26q-24 29 -77 29q-59 0 -59 -42q0 -37 60 -37z" />
    <glyph glyph-name="aring" unicode="&#xe5;" horiz-adv-x="559" 
d="M363 540q-46 0 -74 28t-28 74q0 50 36.5 86t85.5 36q46 0 74 -28t28 -74q0 -50 -36.5 -86t-85.5 -36zM371 618q14 0 25 11t11 25t-9 23t-23 9t-25 -11t-11 -25t9 -23t23 -9zM467 0h-180l10 46q-51 -58 -138 -58q-65 0 -110.5 37t-45.5 103q0 79 51 126t126 47
q96 0 160 -57l8 35q2 8 2 17q0 26 -28 42t-70 16q-67 0 -125 -34l-38 123q86 52 203 52q104 0 172.5 -41t68.5 -128q0 -23 -7 -58zM245 105q48 0 70 24l6 26q-24 29 -77 29q-59 0 -59 -42q0 -37 60 -37z" />
    <glyph glyph-name="ae" unicode="&#xe6;" horiz-adv-x="865" 
d="M839 186h-325v-2q0 -6 11 -19.5t36 -26.5t54 -13q71 0 105 24l54 -117q-63 -44 -155 -44q-139 0 -215 84q-98 -84 -228 -84q-71 0 -122 36t-51 104q0 80 52.5 126.5t124.5 46.5q101 0 160 -57l8 35q2 8 2 17q0 26 -27.5 42t-70.5 16q-66 0 -125 -34l-38 123q85 52 203 52
q127 0 167 -78q78 78 182 78q86 0 147.5 -56t61.5 -164q0 -38 -11 -89zM532 299h159v2q0 17 -21.5 37t-50.5 20q-36 0 -57.5 -18t-29.5 -41zM321 133q-1 2 -1 11q0 8 1 11q-23 29 -77 29q-59 0 -59 -42q0 -37 60 -37q51 0 76 28z" />
    <glyph glyph-name="ccedilla" unicode="&#xe7;" horiz-adv-x="502" 
d="M215 -200q-86 0 -130 44l43 60q43 -36 86 -36q38 0 38 24q0 17 -22 17q-14 0 -24 -12l-52 34l39 65q-84 19 -131 77t-47 139q0 119 84 201t207 82q78 0 131.5 -28t80.5 -72l-134 -103q-26 44 -80 44q-47 0 -77 -31.5t-30 -80.5q0 -34 26 -55.5t63 -21.5q47 0 81 39
l96 -119q-29 -31 -80 -55t-115 -24h-1l-23 -35q13 9 29 9q25 0 42.5 -18t17.5 -47q0 -44 -34 -70.5t-84 -26.5z" />
    <glyph glyph-name="egrave" unicode="&#xe8;" horiz-adv-x="543" 
d="M279 -12q-120 0 -192 58t-72 162q0 118 81.5 202.5t205.5 84.5q96 0 161 -57.5t65 -162.5q0 -49 -11 -89h-324v-1q0 -6 9.5 -19t34 -27t55.5 -14q70 0 105 24l55 -117q-70 -44 -173 -44zM446 556h-120l-123 144h155zM369 300v1q0 18 -18 37.5t-56 19.5q-32 0 -55.5 -19
t-29.5 -39h159z" />
    <glyph glyph-name="eacute" unicode="&#xe9;" horiz-adv-x="543" 
d="M279 -12q-120 0 -192 58t-72 162q0 118 81.5 202.5t205.5 84.5q96 0 161 -57.5t65 -162.5q0 -49 -11 -89h-324v-1q0 -6 9.5 -19t34 -27t55.5 -14q70 0 105 24l55 -117q-70 -44 -173 -44zM561 700l-187 -144h-122l152 144h157zM369 300v1q0 18 -18 37.5t-56 19.5
q-32 0 -55.5 -19t-29.5 -39h159z" />
    <glyph glyph-name="ecircumflex" unicode="&#xea;" horiz-adv-x="543" 
d="M279 -12q-120 0 -192 58t-72 162q0 118 81.5 202.5t205.5 84.5q96 0 161 -57.5t65 -162.5q0 -49 -11 -89h-324v-1q0 -6 9.5 -19t34 -27t55.5 -14q70 0 105 24l55 -117q-70 -44 -173 -44zM517 556h-103l-48 73l-77 -73h-107l120 144h156zM369 300v1q0 18 -18 37.5
t-56 19.5q-32 0 -55.5 -19t-29.5 -39h159z" />
    <glyph glyph-name="edieresis" unicode="&#xeb;" horiz-adv-x="543" 
d="M279 -12q-120 0 -192 58t-72 162q0 118 81.5 202.5t205.5 84.5q96 0 161 -57.5t65 -162.5q0 -49 -11 -89h-324v-1q0 -6 9.5 -19t34 -27t55.5 -14q70 0 105 24l55 -117q-70 -44 -173 -44zM346 628q0 -39 -31 -69t-70 -30q-34 0 -56.5 22.5t-22.5 56.5q0 39 31 69t70 30
q34 0 56.5 -22.5t22.5 -56.5zM562 628q0 -39 -31 -69t-70 -30q-34 0 -56.5 22.5t-22.5 56.5q0 39 31 69t70 30q34 0 56.5 -22.5t22.5 -56.5zM369 300v1q0 18 -18 37.5t-56 19.5q-32 0 -55.5 -19t-29.5 -39h159z" />
    <glyph glyph-name="igrave" unicode="&#xec;" horiz-adv-x="280" 
d="M306 556h-120l-123 144h155zM176 0h-180l107 483h180z" />
    <glyph glyph-name="iacute" unicode="&#xed;" horiz-adv-x="280" 
d="M419 700l-187 -144h-122l152 144h157zM176 0h-180l107 483h180z" />
    <glyph glyph-name="icircumflex" unicode="&#xee;" horiz-adv-x="280" 
d="M377 556h-103l-48 73l-77 -73h-107l120 144h156zM176 0h-180l107 483h180z" />
    <glyph glyph-name="idieresis" unicode="&#xef;" horiz-adv-x="280" 
d="M421 628q0 -39 -31 -69t-70 -30q-34 0 -56.5 22.5t-22.5 56.5q0 39 31 69t70 30q34 0 56.5 -22.5t22.5 -56.5zM205 628q0 -39 -31 -69t-70 -30q-34 0 -56.5 22.5t-22.5 56.5q0 39 31 69t70 30q34 0 56.5 -22.5t22.5 -56.5zM176 0h-180l107 483h180z" />
    <glyph glyph-name="eth" unicode="&#xf0;" horiz-adv-x="577" 
d="M128 458l-16 78l111 32q-23 18 -42 33l125 130q72 -57 117 -104l105 31l17 -76l-66 -20q92 -121 92 -253q0 -135 -79 -228t-217 -93q-121 0 -193 57.5t-72 156.5q0 101 67.5 170t168.5 69q120 0 162 -111q-7 69 -116 177zM278 147q42 0 66.5 20.5t24.5 54.5
q0 28 -23.5 44.5t-64.5 16.5q-40 0 -63.5 -22t-23.5 -53q0 -61 84 -61z" />
    <glyph glyph-name="ntilde" unicode="&#xf1;" horiz-adv-x="607" 
d="M513 0h-180l59 268q3 13 3 23q0 45 -65 45q-37 0 -78 -37l-66 -299h-180l107 483h180l-13 -55q73 67 152 67q74 0 116.5 -35.5t42.5 -91.5q0 -17 -5 -39zM445 554q-37 0 -72.5 21.5t-50.5 21.5q-21 0 -28 -37h-90q14 71 42.5 102.5t84.5 31.5q37 0 73 -21.5t51 -21.5
q19 0 28 37h90q-16 -72 -44 -103t-84 -31z" />
    <glyph glyph-name="ograve" unicode="&#xf2;" horiz-adv-x="577" 
d="M272 -12q-123 0 -190.5 63.5t-67.5 161.5q0 114 82 198t207 84q123 0 190.5 -63.5t67.5 -161.5q0 -114 -82 -198t-207 -84zM279 147q44 0 71 33.5t27 80.5q0 36 -21.5 55.5t-59.5 19.5q-44 0 -71 -33.5t-27 -80.5q0 -36 21.5 -55.5t59.5 -19.5zM455 556h-120l-123 144
h155z" />
    <glyph glyph-name="oacute" unicode="&#xf3;" horiz-adv-x="577" 
d="M272 -12q-123 0 -190.5 63.5t-67.5 161.5q0 114 82 198t207 84q123 0 190.5 -63.5t67.5 -161.5q0 -114 -82 -198t-207 -84zM279 147q44 0 71 33.5t27 80.5q0 36 -21.5 55.5t-59.5 19.5q-44 0 -71 -33.5t-27 -80.5q0 -36 21.5 -55.5t59.5 -19.5zM567 700l-187 -144h-122
l152 144h157z" />
    <glyph glyph-name="ocircumflex" unicode="&#xf4;" horiz-adv-x="577" 
d="M272 -12q-123 0 -190.5 63.5t-67.5 161.5q0 114 82 198t207 84q123 0 190.5 -63.5t67.5 -161.5q0 -114 -82 -198t-207 -84zM279 147q44 0 71 33.5t27 80.5q0 36 -21.5 55.5t-59.5 19.5q-44 0 -71 -33.5t-27 -80.5q0 -36 21.5 -55.5t59.5 -19.5zM526 556h-103l-48 73
l-77 -73h-107l120 144h156z" />
    <glyph glyph-name="otilde" unicode="&#xf5;" horiz-adv-x="577" 
d="M272 -12q-123 0 -190.5 63.5t-67.5 161.5q0 114 82 198t207 84q123 0 190.5 -63.5t67.5 -161.5q0 -114 -82 -198t-207 -84zM279 147q44 0 71 33.5t27 80.5q0 36 -21.5 55.5t-59.5 19.5q-44 0 -71 -33.5t-27 -80.5q0 -36 21.5 -55.5t59.5 -19.5zM429 554q-37 0 -72.5 21.5
t-50.5 21.5q-21 0 -28 -37h-90q14 71 42.5 102.5t84.5 31.5q37 0 73 -21.5t51 -21.5q19 0 28 37h90q-16 -72 -44 -103t-84 -31z" />
    <glyph glyph-name="odieresis" unicode="&#xf6;" horiz-adv-x="577" 
d="M272 -12q-123 0 -190.5 63.5t-67.5 161.5q0 114 82 198t207 84q123 0 190.5 -63.5t67.5 -161.5q0 -114 -82 -198t-207 -84zM279 147q44 0 71 33.5t27 80.5q0 36 -21.5 55.5t-59.5 19.5q-44 0 -71 -33.5t-27 -80.5q0 -36 21.5 -55.5t59.5 -19.5zM569 628q0 -39 -31 -69
t-70 -30q-34 0 -56.5 22.5t-22.5 56.5q0 39 31 69t70 30q34 0 56.5 -22.5t22.5 -56.5zM353 628q0 -39 -31 -69t-70 -30q-34 0 -56.5 22.5t-22.5 56.5q0 39 31 69t70 30q34 0 56.5 -22.5t22.5 -56.5z" />
    <glyph glyph-name="divide" unicode="&#xf7;" horiz-adv-x="511" 
d="M491 285h-453l23 105h453zM231 94q-28 0 -48.5 20.5t-20.5 49.5q0 33 24.5 57.5t58.5 24.5q28 0 48.5 -20.5t20.5 -49.5q0 -33 -25 -57.5t-58 -24.5zM305 428q-28 0 -48.5 20.5t-20.5 49.5q0 33 24.5 57.5t58.5 24.5q28 0 48.5 -20.5t20.5 -49.5q0 -33 -25 -57.5
t-58 -24.5z" />
    <glyph glyph-name="oslash" unicode="&#xf8;" horiz-adv-x="577" 
d="M68 0h-108l93 83q-39 54 -39 130q0 114 82 198t207 84q100 0 166 -44l36 32h111l-94 -83q39 -56 39 -130q0 -114 -82 -198t-207 -84q-103 0 -167 44zM279 147q44 0 71 33.5t27 80.5q0 7 -1 10l-134 -118q15 -6 37 -6zM198 222v-11l134 119q-15 6 -36 6q-44 0 -71 -33.5
t-27 -80.5z" />
    <glyph glyph-name="ugrave" unicode="&#xf9;" horiz-adv-x="606" 
d="M102 483h180l-59 -267q-3 -14 -3 -23q0 -46 65 -46q36 0 78 38l66 298h180l-107 -483h-180l13 55q-73 -67 -152 -67q-74 0 -116.5 35.5t-42.5 91.5q0 17 5 39zM471 556h-120l-123 144h155z" />
    <glyph glyph-name="uacute" unicode="&#xfa;" horiz-adv-x="606" 
d="M102 483h180l-59 -267q-3 -14 -3 -23q0 -46 65 -46q36 0 78 38l66 298h180l-107 -483h-180l13 55q-73 -67 -152 -67q-74 0 -116.5 35.5t-42.5 91.5q0 17 5 39zM583 700l-187 -144h-122l152 144h157z" />
    <glyph glyph-name="ucircumflex" unicode="&#xfb;" horiz-adv-x="606" 
d="M102 483h180l-59 -267q-3 -14 -3 -23q0 -46 65 -46q36 0 78 38l66 298h180l-107 -483h-180l13 55q-73 -67 -152 -67q-74 0 -116.5 35.5t-42.5 91.5q0 17 5 39zM542 556h-103l-48 73l-77 -73h-107l120 144h156z" />
    <glyph glyph-name="udieresis" unicode="&#xfc;" horiz-adv-x="606" 
d="M102 483h180l-59 -267q-3 -14 -3 -23q0 -46 65 -46q36 0 78 38l66 298h180l-107 -483h-180l13 55q-73 -67 -152 -67q-74 0 -116.5 35.5t-42.5 91.5q0 17 5 39zM586 628q0 -39 -31 -69t-70 -30q-34 0 -56.5 22.5t-22.5 56.5q0 39 31 69t70 30q34 0 56.5 -22.5t22.5 -56.5z
M370 628q0 -39 -31 -69t-70 -30q-34 0 -56.5 22.5t-22.5 56.5q0 39 31 69t70 30q34 0 56.5 -22.5t22.5 -56.5z" />
    <glyph glyph-name="yacute" unicode="&#xfd;" horiz-adv-x="606" 
d="M582 700l-187 -144h-122l152 144h157zM223 -196q-162 0 -251 86l101 119q21 -27 64.5 -42.5t82.5 -15.5q50 0 75 25t38 77l8 33q-23 -21 -39 -32t-46.5 -22.5t-65.5 -11.5q-72 0 -115.5 34t-43.5 94q0 14 5 38l67 297h180l-53 -236q-3 -15 -3 -22q0 -46 65 -46
q37 0 78 37l59 267h180l-96 -431q-24 -108 -94.5 -178t-195.5 -70z" />
    <glyph glyph-name="thorn" unicode="&#xfe;" horiz-adv-x="595" 
d="M327 -12q-95 0 -140 63l-52 -235h-180l188 851h180l-52 -235q58 63 131 63q83 0 131.5 -52.5t48.5 -148.5q0 -52 -16 -104.5t-46.5 -98.5t-80.5 -74.5t-112 -28.5zM295 147q43 0 72 31.5t29 77.5q0 35 -23.5 57.5t-56.5 22.5q-40 0 -73 -33l-28 -123q30 -33 80 -33z" />
    <glyph glyph-name="ydieresis" unicode="&#xff;" horiz-adv-x="606" 
d="M582 628q0 -39 -31 -69t-70 -30q-34 0 -56.5 22.5t-22.5 56.5q0 39 31 69t70 30q34 0 56.5 -22.5t22.5 -56.5zM366 628q0 -39 -31 -69t-70 -30q-34 0 -56.5 22.5t-22.5 56.5q0 39 31 69t70 30q34 0 56.5 -22.5t22.5 -56.5zM223 -196q-162 0 -251 86l101 119
q21 -27 64.5 -42.5t82.5 -15.5q50 0 75 25t38 77l8 33q-23 -21 -39 -32t-46.5 -22.5t-65.5 -11.5q-72 0 -115.5 34t-43.5 94q0 14 5 38l67 297h180l-53 -236q-3 -15 -3 -22q0 -46 65 -46q37 0 78 37l59 267h180l-96 -431q-24 -108 -94.5 -178t-195.5 -70z" />
    <glyph glyph-name="dotlessi" unicode="&#x131;" horiz-adv-x="280" 
d="M176 0h-180l107 483h180z" />
    <glyph glyph-name="Lslash" unicode="&#x141;" horiz-adv-x="545" 
d="M-11 163l35 160l63 32l69 312h202l-43 -195l63 32l-35 -161l-64 -32l-29 -135h253l-39 -176h-455l43 195z" />
    <glyph glyph-name="lslash" unicode="&#x142;" horiz-adv-x="352" 
d="M-8 180l28 126l76 39l71 322h180l-49 -219l79 40l-28 -125l-78 -40l-27 -123q-2 -8 -2 -18q0 -15 13 -25t33 -10t25 5v-144q-26 -20 -86 -20q-85 0 -131.5 32.5t-46.5 90.5q0 20 4 37l15 71z" />
    <glyph glyph-name="OE" unicode="&#x152;" horiz-adv-x="1062" 
d="M978 0h-506l10 49q-66 -61 -175 -61q-114 0 -196.5 87t-82.5 219q0 169 111.5 276t268.5 107q125 0 197 -74l14 64h506l-39 -176h-304l-14 -66h297l-39 -176h-297l-16 -73h304zM524 237l40 179q-19 39 -55.5 61t-83.5 22q-85 0 -136.5 -57t-51.5 -134q0 -63 40.5 -102.5
t101.5 -39.5q89 0 145 71z" />
    <glyph glyph-name="oe" unicode="&#x153;" horiz-adv-x="901" 
d="M877 186h-320v-1q0 -8 10.5 -21.5t34.5 -26t53 -12.5q68 0 103 24l54 -117q-69 -44 -171 -44q-62 0 -112 22t-77 54q-45 -37 -85.5 -56.5t-96.5 -19.5q-116 0 -186 59.5t-70 165.5q0 111 80 196.5t207 85.5q58 0 106.5 -22t76.5 -55q44 37 84 57t96 20q93 0 158.5 -56.5
t65.5 -163.5q0 -43 -11 -89zM574 300h155v1q0 19 -17.5 38t-54.5 19q-31 0 -54.5 -19t-28.5 -39zM373 261q0 37 -21.5 56t-57.5 19q-41 0 -68.5 -32t-27.5 -82q0 -36 21 -55.5t58 -19.5q43 0 69.5 33t26.5 81z" />
    <glyph glyph-name="Scaron" unicode="&#x160;" horiz-adv-x="613" 
d="M486 728h-156l-59 144h103l48 -73l77 73h107zM316 -12q-106 0 -195 35t-139 95l120 144q35 -45 99 -73.5t131 -28.5q26 0 39.5 9t13.5 20q0 15 -33 28t-80 28.5t-93.5 37.5t-79.5 63.5t-33 97.5q0 94 75.5 163.5t210.5 69.5q83 0 160 -28.5t131 -82.5l-121 -140
q-39 39 -95.5 60t-107.5 21q-19 0 -30 -7.5t-11 -19.5q0 -14 33 -27t80 -28.5t94 -37.5t80 -63t33 -95q0 -105 -77.5 -173t-204.5 -68z" />
    <glyph glyph-name="scaron" unicode="&#x161;" horiz-adv-x="490" 
d="M231 -12q-69 0 -136.5 23.5t-114.5 65.5l92 113q27 -26 78.5 -50t97.5 -24q13 0 22 5t9 13q0 15 -24 25t-58.5 19t-69.5 23t-59 44t-24 73q0 72 57.5 124.5t157.5 52.5q135 0 225 -78l-84 -109q-22 22 -61 40t-78 18q-18 0 -27.5 -7t-9.5 -14q0 -10 24 -18.5t59 -18
t69.5 -24t58.5 -44.5t24 -73q0 -78 -61.5 -128.5t-166.5 -50.5zM394 556h-156l-59 144h103l48 -73l77 73h107z" />
    <glyph glyph-name="Ydieresis" unicode="&#x178;" horiz-adv-x="664" 
d="M653 805q0 -39 -31 -69t-70 -30q-34 0 -56.5 22.5t-22.5 56.5q0 39 31 69t70 30q34 0 56.5 -22.5t22.5 -56.5zM437 805q0 -39 -31 -69t-70 -30q-34 0 -56.5 22.5t-22.5 56.5q0 39 31 69t70 30q34 0 56.5 -22.5t22.5 -56.5zM380 0h-202l58 265l-161 402h217l74 -225
l172 225h237l-337 -402z" />
    <glyph glyph-name="Zcaron" unicode="&#x17d;" horiz-adv-x="600" 
d="M487 728h-156l-59 144h103l48 -73l77 73h107zM510 0h-528l35 160l317 331h-244l39 176h521l-35 -159l-318 -332h252z" />
    <glyph glyph-name="zcaron" unicode="&#x17e;" horiz-adv-x="486" 
d="M399 0h-420l29 132l208 195h-165l35 156h416l-28 -126l-214 -201h173zM386 556h-156l-59 144h103l48 -73l77 73h107z" />
    <glyph glyph-name="florin" unicode="&#x192;" horiz-adv-x="477" 
d="M142 -161h-206l85 384h-40v156h74l28 127q17 79 67.5 125t131.5 46q104 0 164 -55l-71 -141q-15 20 -45 20q-40 0 -50 -42l-18 -80h87v-156h-121z" />
    <glyph glyph-name="circumflex" unicode="&#x2c6;" horiz-adv-x="335" 
d="M404 556h-103l-48 73l-77 -73h-107l120 144h156z" />
    <glyph glyph-name="caron" unicode="&#x2c7;" horiz-adv-x="335" 
d="M316 556h-156l-59 144h103l48 -73l77 73h107z" />
    <glyph glyph-name="breve" unicode="&#x2d8;" horiz-adv-x="351" 
d="M438 637q-85 -88 -194 -88q-53 0 -94 23.5t-63 64.5l86 62q26 -53 88 -53t112 53z" />
    <glyph glyph-name="dotaccent" unicode="&#x2d9;" horiz-adv-x="237" 
d="M292 628q0 -39 -31 -69t-70 -30q-34 0 -56.5 22.5t-22.5 56.5q0 39 31 69t70 30q34 0 56.5 -22.5t22.5 -56.5z" />
    <glyph glyph-name="ring" unicode="&#x2da;" horiz-adv-x="222" 
d="M191 540q-46 0 -74 28t-28 74q0 50 36.5 86t85.5 36q46 0 74 -28t28 -74q0 -50 -36.5 -86t-85.5 -36zM199 618q14 0 25 11t11 25t-9 23t-23 9t-25 -11t-11 -25t9 -23t23 -9z" />
    <glyph glyph-name="ogonek" unicode="&#x2db;" horiz-adv-x="211" 
d="M72 -91l55 -49q-41 -46 -98 -46q-44 0 -74.5 21t-30.5 60q0 41 28 80.5t83 61.5l57 -37q-86 -39 -86 -92q0 -26 27 -26q21 0 39 27z" />
    <glyph glyph-name="tilde" unicode="&#x2dc;" horiz-adv-x="341" 
d="M311 554q-37 0 -72.5 21.5t-50.5 21.5q-21 0 -28 -37h-90q14 71 42.5 102.5t84.5 31.5q37 0 73 -21.5t51 -21.5q19 0 28 37h90q-16 -72 -44 -103t-84 -31z" />
    <glyph glyph-name="hungarumlaut" unicode="&#x2dd;" horiz-adv-x="371" 
d="M316 700l-147 -144h-102l112 144h137zM472 700l-147 -144h-102l112 144h137z" />
    <glyph glyph-name="pi" unicode="&#x3c0;" horiz-adv-x="681" 
d="M546 0h-180l76 343h-158l-76 -343h-180l76 343h-64l34 157h645l-34 -157h-63z" />
    <glyph glyph-name="endash" unicode="&#x2013;" horiz-adv-x="593" 
d="M546 167h-533l33 150h533z" />
    <glyph glyph-name="emdash" unicode="&#x2014;" horiz-adv-x="833" 
d="M786 167h-773l33 150h773z" />
    <glyph glyph-name="quoteleft" unicode="&#x2018;" horiz-adv-x="281" 
d="M73 440q0 68 50 134.5t128 103.5l60 -62q-84 -34 -112 -84q4 1 13 1q35 0 58 -22t23 -63q0 -46 -36.5 -79.5t-81.5 -33.5q-42 0 -72 28t-30 77z" />
    <glyph glyph-name="quoteright" unicode="&#x2019;" horiz-adv-x="281" 
d="M325 572q0 -68 -50 -134.5t-128 -103.5l-60 62q84 34 112 84q-4 -1 -13 -1q-35 0 -58 22t-23 63q0 46 36.5 79.5t81.5 33.5q42 0 72 -28t30 -77z" />
    <glyph glyph-name="quotesinglbase" unicode="&#x201a;" horiz-adv-x="281" 
d="M220 97q0 -68 -50 -134.5t-128 -103.5l-60 62q84 34 112 84q-3 -1 -13 -1q-35 0 -58 22t-23 63q0 46 36.5 79.5t81.5 33.5q42 0 72 -28t30 -77z" />
    <glyph glyph-name="quotedblleft" unicode="&#x201c;" horiz-adv-x="528" 
d="M316 440q0 68 50 134.5t128 103.5l60 -62q-84 -34 -112 -84q4 1 13 1q35 0 58 -22t23 -63q0 -46 -36.5 -79.5t-81.5 -33.5q-42 0 -72 28t-30 77zM69 440q0 68 50 134.5t128 103.5l60 -62q-84 -34 -112 -84q4 1 13 1q35 0 58 -22t23 -63q0 -46 -36.5 -79.5t-81.5 -33.5
q-42 0 -72 28t-30 77z" />
    <glyph glyph-name="quotedblright" unicode="&#x201d;" horiz-adv-x="528" 
d="M325 572q0 -68 -50 -134.5t-128 -103.5l-60 62q84 34 112 84q-4 -1 -13 -1q-35 0 -58 22t-23 63q0 46 36.5 79.5t81.5 33.5q42 0 72 -28t30 -77zM572 572q0 -68 -50 -134.5t-128 -103.5l-60 62q84 34 112 84q-4 -1 -13 -1q-35 0 -58 22t-23 63q0 46 36.5 79.5t81.5 33.5
q42 0 72 -28t30 -77z" />
    <glyph glyph-name="quotedblbase" unicode="&#x201e;" horiz-adv-x="528" 
d="M220 97q0 -68 -50 -134.5t-128 -103.5l-60 62q84 34 112 84q-3 -1 -13 -1q-35 0 -58 22t-23 63q0 46 36.5 79.5t81.5 33.5q42 0 72 -28t30 -77zM467 97q0 -68 -50 -134.5t-128 -103.5l-60 62q84 34 112 84q-3 -1 -13 -1q-35 0 -58 22t-23 63q0 46 36.5 79.5t81.5 33.5
q42 0 72 -28t30 -77z" />
    <glyph glyph-name="dagger" unicode="&#x2020;" horiz-adv-x="291" 
d="M333 513l-88 4l-38 -190h-88l47 190l-90 -4l18 81l89 -3l14 86h88l-23 -86l89 3z" />
    <glyph glyph-name="daggerdbl" unicode="&#x2021;" horiz-adv-x="291" 
d="M351 594l-18 -81l-88 4l-39 -175l90 4l-18 -81l-88 3l-16 -88h-88l24 88l-89 -3l18 81l87 -4l39 175l-89 -4l18 81l88 -3l15 86h88l-23 -86z" />
    <glyph glyph-name="bullet" unicode="&#x2022;" horiz-adv-x="358" 
d="M310 255q0 -58 -43 -100t-102 -42q-50 0 -83.5 33.5t-33.5 83.5q0 58 43 100t102 42q50 0 83.5 -33.5t33.5 -83.5z" />
    <glyph glyph-name="ellipsis" unicode="&#x2026;" horiz-adv-x="846" 
d="M98 -13q-40 0 -68.5 29t-28.5 70q0 47 35 81.5t82 34.5q40 0 68.5 -29t28.5 -70q0 -47 -35 -81.5t-82 -34.5zM380 -13q-40 0 -68.5 29t-28.5 70q0 47 35 81.5t82 34.5q40 0 68.5 -29t28.5 -70q0 -47 -35 -81.5t-82 -34.5zM662 -13q-40 0 -68.5 29t-28.5 70q0 47 35 81.5
t82 34.5q40 0 68.5 -29t28.5 -70q0 -47 -35 -81.5t-82 -34.5z" />
    <glyph glyph-name="perthousand" unicode="&#x2030;" horiz-adv-x="1160" 
d="M174 0h-97l573 667h98zM555 -12q-70 0 -120.5 38.5t-50.5 103.5q0 85 56 139.5t136 54.5q71 0 121 -38.5t50 -103.5q0 -85 -56 -139.5t-136 -54.5zM559 94q29 0 47.5 20.5t18.5 56.5q0 20 -14.5 33.5t-38.5 13.5q-29 0 -47.5 -20.5t-18.5 -56.5q0 -20 14.5 -33.5
t38.5 -13.5zM247 341q-70 0 -120.5 38.5t-50.5 103.5q0 85 56 139.5t136 54.5q71 0 121 -38.5t50 -103.5q0 -85 -56 -139.5t-136 -54.5zM251 447q29 0 47.5 20.5t18.5 56.5q0 20 -14.5 33.5t-38.5 13.5q-29 0 -47.5 -20.5t-18.5 -56.5q0 -20 14.5 -33.5t38.5 -13.5zM931 -12
q-70 0 -120.5 38.5t-50.5 103.5q0 85 56 139.5t136 54.5q71 0 121 -38.5t50 -103.5q0 -85 -56 -139.5t-136 -54.5zM935 94q29 0 47.5 20.5t18.5 56.5q0 20 -14.5 33.5t-38.5 13.5q-29 0 -47.5 -20.5t-18.5 -56.5q0 -20 14.5 -33.5t38.5 -13.5z" />
    <glyph glyph-name="guilsinglleft" unicode="&#x2039;" horiz-adv-x="380" 
d="M305 63h-156l-120 180l200 177h164l-204 -182z" />
    <glyph glyph-name="guilsinglright" unicode="&#x203a;" horiz-adv-x="380" 
d="M77 420h156l120 -180l-200 -177h-164l204 182z" />
    <glyph glyph-name="fraction" unicode="&#x2044;" horiz-adv-x="180" 
d="M445 667l-574 -667h-97l573 667h98z" />
    <glyph glyph-name="Euro" unicode="&#x20ac;" horiz-adv-x="722" 
d="M407 -12q-125 0 -218.5 62t-120.5 168h-62l21 95h32q2 30 4 43h-27l22 95h32q46 105 145.5 166t224.5 61q70 0 127.5 -19t95 -52t61.5 -70t36 -80l-194 -61q-9 47 -46 75.5t-89 28.5q-72 0 -123 -49h188l-22 -95h-220q-6 -21 -6 -43h217l-21 -95h-164q42 -52 118 -52
q39 0 78.5 22.5t56.5 54.5l158 -102q-57 -82 -140 -117.5t-164 -35.5z" />
    <glyph glyph-name="trademark" unicode="&#x2122;" horiz-adv-x="454" 
d="M464 447h-28l40 182l-115 -182h-8l-35 182l-40 -182h-28l48 220h43l29 -160l99 160h43zM257 641h-62l-43 -194h-28l43 194h-62l5 26h152z" />
    <glyph glyph-name="Omega" unicode="&#x2126;" horiz-adv-x="766" 
d="M-19 0l39 176h121q-96 83 -96 203q0 51 23.5 102t68 96t120.5 73t170 28q151 0 253.5 -72.5t102.5 -196.5q0 -139 -153 -233h86l-39 -176h-298l19 88l20 88q72 18 110 69t38 117q0 62 -38.5 99.5t-110.5 37.5q-82 0 -130 -57.5t-48 -129.5q0 -94 79 -136l-39 -176h-298z
" />
    <glyph glyph-name="partialdiff" unicode="&#x2202;" horiz-adv-x="577" 
d="M275 -12q-121 0 -195.5 57.5t-74.5 156.5q0 100 70 169.5t171 69.5q120 0 162 -111q-5 59 -73.5 133.5t-153.5 137.5l125 130q139 -108 202 -210.5t63 -211.5q0 -135 -79 -228t-217 -93zM278 147q42 0 66.5 20.5t24.5 54.5q0 28 -23.5 44.5t-64.5 16.5q-40 0 -63.5 -22
t-23.5 -53q0 -61 84 -61z" />
    <glyph glyph-name="Delta" unicode="&#x2206;" horiz-adv-x="710" 
d="M674 0h-746l393 667h254zM440 176l-26 293l-154 -293h180z" />
    <glyph glyph-name="product" unicode="&#x220f;" horiz-adv-x="868" 
d="M677 -90h-202l128 581h-229l-128 -581h-202l128 581h-100l39 176h832l-39 -176h-99z" />
    <glyph glyph-name="summation" unicode="&#x2211;" horiz-adv-x="596" 
d="M340 491l131 -202l-220 -203h274l-39 -176h-524l39 176l221 208l-130 198l38 175h523l-39 -176h-274z" />
    <glyph glyph-name="minus" unicode="&#x2212;" 
d="M489 282h-452l23 105h452z" />
    <glyph glyph-name="radical" unicode="&#x221a;" horiz-adv-x="639" 
d="M328 0h-111l-33 277l-114 -33l-9 101l229 66l22 -234l270 490h132z" />
    <glyph glyph-name="infinity" unicode="&#x221e;" horiz-adv-x="724" 
d="M203 147q-75 0 -116.5 41.5t-41.5 114.5q0 53 21 102.5t68.5 84.5t110.5 35q116 0 159 -93q72 93 156 93q74 0 116 -42t42 -115q0 -53 -21 -102t-68.5 -84t-110.5 -35q-116 0 -159 92q-71 -92 -156 -92zM511 251q40 0 67 27.5t27 70.5q0 33 -21.5 52.5t-51.5 19.5
q-60 0 -102 -91q4 -37 26.5 -58t54.5 -21zM233 251q60 0 102 90q-4 37 -26.5 58.5t-54.5 21.5q-40 0 -67 -28t-27 -71q0 -33 21.5 -52t51.5 -19z" />
    <glyph glyph-name="integral" unicode="&#x222b;" horiz-adv-x="399" 
d="M0 -100h-59l25 114h60q28 0 48 19.5t27 51.5l111 498q42 185 226 185h60l-26 -114h-60q-29 0 -48.5 -19t-26.5 -51l-111 -500q-41 -184 -226 -184z" />
    <glyph glyph-name="approxequal" unicode="&#x2248;" 
d="M17 190l24 112q47 -26 108 -26q44 0 110 22.5t125 22.5q60 0 109 -20l-25 -112q-48 27 -108 27q-44 0 -110 -22.5t-125 -22.5q-61 0 -108 19zM56 367l25 112q46 -26 107 -26q44 0 110 22.5t125 22.5q60 0 109 -20l-24 -112q-49 27 -108 27q-44 0 -110 -22.5t-125 -22.5
q-62 0 -109 19z" />
    <glyph glyph-name="notequal" unicode="&#x2260;" 
d="M119 93h-103l83 97h-82l23 105h149l67 78h-199l23 105h266l83 96h104l-83 -96h82l-23 -105h-149l-67 -78h199l-23 -105h-267z" />
    <glyph glyph-name="lessequal" unicode="&#x2264;" 
d="M453 120l-412 180l29 130l492 180l-29 -130l-361 -121l308 -119zM427 0h-452l23 105h452z" />
    <glyph glyph-name="greaterequal" unicode="&#x2265;" 
d="M492 300l-492 -180l29 130l360 119l-307 121l27 120l412 -180zM427 0h-452l23 105h452z" />
    <glyph glyph-name="lozenge" unicode="&#x25ca;" horiz-adv-x="375" 
d="M144 0h-21l-84 334l231 333h21l85 -333zM142 45l197 293l-67 284l-196 -292z" />
    <glyph glyph-name="apple" unicode="&#xf8ff;" horiz-adv-x="667" 
d="M190 153l13 59h-64q-26 0 -46.5 -19.5t-20.5 -44.5q0 -22 14.5 -37.5t35.5 -15.5q26 0 44 15.5t24 42.5zM257 455l11 49q2 10 2 16q0 23 -14.5 37.5t-36.5 14.5q-29 0 -48 -18t-19 -46q0 -24 16.5 -38.5t41.5 -14.5h47zM269 265h137l31 137h-137zM553 159
q0 24 -16.5 38.5t-41.5 14.5h-47l-11 -49q-2 -10 -2 -16q0 -23 14.5 -37.5t36.5 -14.5q29 0 48 18t19 46zM633 519q0 22 -14.5 37.5t-35.5 15.5q-26 0 -44 -15.5t-24 -42.5l-13 -59h64q26 0 46.5 19.5t20.5 44.5zM607 160q0 -48 -39 -83t-89 -35q-42 0 -70 28t-28 70
q0 14 3 29l10 43h-137l-15 -67q-11 -46 -45 -74.5t-80 -28.5q-41 0 -70 28t-29 69q0 49 38 87.5t87 38.5h72l31 137h-47q-45 0 -72.5 29.5t-27.5 75.5q0 48 38.5 83t88.5 35q42 0 70 -28t28 -70q0 -14 -3 -29l-10 -43h137l15 67q11 46 45 74.5t80 28.5q42 0 71 -28t29 -69
q0 -50 -38 -88t-87 -38h-72l-31 -137h44q46 0 74.5 -29.5t28.5 -75.5z" />
    </font>
</defs>
</svg>
